<svg width="48" height="48" viewBox="0 0 48 48" fill="none" xmlns="http://www.w3.org/2000/svg">
<g id="icon 62">
<path id="Vector" d="M35.1429 16.8571V34C35.1429 34.4732 35.0501 34.9152 34.8647 35.3259C34.6793 35.7366 34.4243 36.0982 34.0998 36.4107C33.7752 36.7232 33.3951 36.9688 32.9593 37.1473C32.5235 37.3259 32.0646 37.4196 31.5824 37.4286H15.5604C15.069 37.4286 14.6101 37.3393 14.1836 37.1607C13.757 36.9821 13.3815 36.7366 13.057 36.4241C12.7325 36.1116 12.4775 35.75 12.2921 35.3393C12.1066 34.9286 12.0093 34.4821 12 34V16.8571H15.5604V15.1429C15.5604 14.4375 15.6995 13.7723 15.9777 13.1473C16.2558 12.5223 16.6406 11.9777 17.132 11.5134C17.6235 11.0491 18.189 10.683 18.8288 10.4152C19.4686 10.1473 20.1593 10.0089 20.9011 10C21.8654 10 22.7601 10.2321 23.5853 10.6964C24.4105 10.2321 25.296 10 26.2418 10C26.9742 10 27.665 10.1339 28.314 10.4018C28.9631 10.6696 29.5287 11.0402 30.0108 11.5134C30.493 11.9866 30.8731 12.5312 31.1513 13.1473C31.4294 13.7634 31.5731 14.4286 31.5824 15.1429V16.8571H35.1429ZM29.8022 15.1429C29.8022 14.6786 29.7095 14.2366 29.524 13.817C29.3386 13.3973 29.0836 13.0357 28.7591 12.7321C28.4346 12.4286 28.0544 12.183 27.6186 11.9955C27.1829 11.808 26.7239 11.7143 26.2418 11.7143C25.8245 11.7143 25.4305 11.7812 25.0596 11.9152C25.3285 12.2366 25.5417 12.5536 25.6993 12.8661C25.857 13.1786 25.9729 13.4911 26.047 13.8036C26.1212 14.1161 26.1722 14.433 26.2 14.7545C26.2278 15.0759 26.2418 15.4196 26.2418 15.7857V16.8571H29.8022V15.1429ZM17.3407 16.8571H24.4615V15.1429C24.4615 14.6786 24.3688 14.2366 24.1834 13.817C23.9979 13.3973 23.743 13.0357 23.4184 12.7321C23.0939 12.4286 22.7138 12.183 22.278 11.9955C21.8422 11.808 21.3832 11.7143 20.9011 11.7143C20.4097 11.7143 19.9507 11.8036 19.5242 11.9821C19.0977 12.1607 18.7222 12.4062 18.3977 12.7188C18.0731 13.0312 17.8182 13.3973 17.6327 13.817C17.4473 14.2366 17.3499 14.6786 17.3407 15.1429V16.8571ZM28.4948 35.7143C28.1796 35.1786 28.022 34.6071 28.022 34V18.5714H13.7802V34C13.7802 34.2411 13.8266 34.4643 13.9193 34.6696C14.012 34.875 14.1372 35.0536 14.2948 35.2054C14.4524 35.3571 14.6425 35.4821 14.865 35.5804C15.0876 35.6786 15.3194 35.7232 15.5604 35.7143H28.4948ZM33.3626 18.5714H29.8022V34C29.8022 34.2411 29.8486 34.4643 29.9413 34.6696C30.034 34.875 30.1592 35.0536 30.3168 35.2054C30.4744 35.3571 30.6645 35.4821 30.887 35.5804C31.1095 35.6786 31.3413 35.7232 31.5824 35.7143C31.8328 35.7143 32.0646 35.6696 32.2778 35.5804C32.4911 35.4911 32.6765 35.3705 32.8341 35.2188C32.9918 35.067 33.1216 34.8839 33.2236 34.6696C33.3256 34.4554 33.3719 34.2321 33.3626 34V18.5714Z" fill="url(#paint0_linear_339_5333)"/>
</g>
<defs>
<linearGradient id="paint0_linear_339_5333" x1="12" y1="23.7143" x2="35.1429" y2="23.7143" gradientUnits="userSpaceOnUse">
<stop stop-color="#1DC9CE"/>
<stop offset="1" stop-color="#009ED5"/>
</linearGradient>
</defs>
</svg>
