<svg width="48" height="48" viewBox="0 0 48 48" fill="none" xmlns="http://www.w3.org/2000/svg">
<rect width="48" height="48" fill="#B4B4B4"/>
<g clip-path="url(#clip0_8_212)">
<rect width="380" height="11612" transform="translate(-19 -5453)" fill="#1F1D23"/>
<g clip-path="url(#clip1_8_212)">
<rect width="380" height="860" transform="translate(-19 -499.893)" fill="url(#paint0_linear_8_212)"/>
<rect width="48" height="48" rx="24" fill="#3C383F"/>
<mask id="path-2-outside-1_8_212" maskUnits="userSpaceOnUse" x="15" y="5" width="18" height="38" fill="black">
<rect fill="white" x="15" y="5" width="18" height="38"/>
<path d="M27.4035 14.6749H26.6347V12.4775C26.6347 12.3647 26.5907 12.2567 26.5123 12.1769C26.4339 12.0972 26.3276 12.0524 26.2168 12.0524H25.732V11.3893C25.732 11.2766 25.688 11.1685 25.6096 11.0889C25.5313 11.0091 25.4251 10.9644 25.3141 10.9644H24.8963V9.26423H25.6485C25.7288 9.26405 25.8075 9.2403 25.8749 9.19583C25.9424 9.15136 25.9957 9.08802 26.0287 9.01346L26.3839 8.21015C26.4169 8.13558 26.4703 8.07226 26.5377 8.02778C26.6052 7.98331 26.6837 7.95956 26.7641 7.95938H28.5401C28.8883 7.96035 29.2315 8.04328 29.5429 8.20165L30.7464 8.80519C30.81 8.8378 30.8808 8.85332 30.952 8.85029C31.0231 8.84725 31.0923 8.82576 31.1531 8.78787C31.2137 8.74997 31.2639 8.69691 31.2988 8.63373C31.3337 8.57057 31.3521 8.49937 31.3523 8.42691V7.33034C31.3521 7.25186 31.3305 7.17496 31.2899 7.10819C31.2493 7.04142 31.1913 6.98738 31.1225 6.95206L29.8188 6.28477C29.4579 6.10124 29.0605 6.00385 28.6571 6H23.5257C23.1289 6 22.7485 6.16031 22.4679 6.44567C22.1873 6.73102 22.0297 7.11805 22.0297 7.52161V8.82644C22.0297 8.93916 22.0737 9.04728 22.1521 9.12699C22.2305 9.2067 22.3368 9.25148 22.4476 9.25148H23.0995V10.9517H22.6816C22.5708 10.9517 22.4645 10.9964 22.3861 11.0761C22.3079 11.1558 22.2637 11.2639 22.2637 11.3766V12.0397H21.7707C21.6599 12.0397 21.5536 12.0844 21.4752 12.1642C21.3968 12.2439 21.3528 12.3519 21.3528 12.4646V14.6622H20.5965C19.3775 14.6622 18.2083 15.1547 17.3463 16.0315C16.4843 16.9083 16 18.0974 16 19.3374V41.15C16 41.3754 16.088 41.5915 16.2448 41.751C16.4015 41.9104 16.6141 42 16.8357 42H31.1643C31.3859 42 31.5985 41.9104 31.7552 41.751C31.912 41.5915 32 41.3754 32 41.15V19.3502C32 18.7362 31.8811 18.1283 31.6501 17.561C31.4191 16.9937 31.0805 16.4784 30.6537 16.0443C30.2269 15.6101 29.7201 15.2657 29.1625 15.0307C28.6048 14.7958 28.0071 14.6749 27.4035 14.6749ZM16.8483 19.3502C16.8483 18.3357 17.2445 17.3627 17.9497 16.6453C18.6551 15.928 19.6116 15.5249 20.6091 15.5249H27.4035C28.4009 15.5249 29.3575 15.928 30.0628 16.6453C30.768 17.3627 31.1643 18.3357 31.1643 19.3502V41.15H16.8357L16.8483 19.3502ZM22.1885 12.9024H25.7989V14.6749H22.1885V12.9024ZM22.8655 7.52161C22.8655 7.34351 22.9351 7.17269 23.0589 7.04676C23.1827 6.92081 23.3507 6.85006 23.5257 6.85006H28.6571C28.9372 6.85086 29.2132 6.91779 29.4636 7.04558L30.5375 7.59386V7.73837L29.9107 7.42386C29.4824 7.20642 29.0104 7.09293 28.5317 7.09232H26.76C26.5177 7.09239 26.2805 7.16388 26.0773 7.29815C25.8741 7.43241 25.7136 7.62371 25.6151 7.84888L25.3727 8.40142H22.8655V7.52161ZM24.2653 9.25148V10.9517H23.7221V9.25148H24.2653ZM24.9088 11.8017V12.0397H23.0828V11.8017H24.9088Z"/>
</mask>
<path d="M27.4035 14.6749H26.6347V12.4775C26.6347 12.3647 26.5907 12.2567 26.5123 12.1769C26.4339 12.0972 26.3276 12.0524 26.2168 12.0524H25.732V11.3893C25.732 11.2766 25.688 11.1685 25.6096 11.0889C25.5313 11.0091 25.4251 10.9644 25.3141 10.9644H24.8963V9.26423H25.6485C25.7288 9.26405 25.8075 9.2403 25.8749 9.19583C25.9424 9.15136 25.9957 9.08802 26.0287 9.01346L26.3839 8.21015C26.4169 8.13558 26.4703 8.07226 26.5377 8.02778C26.6052 7.98331 26.6837 7.95956 26.7641 7.95938H28.5401C28.8883 7.96035 29.2315 8.04328 29.5429 8.20165L30.7464 8.80519C30.81 8.8378 30.8808 8.85332 30.952 8.85029C31.0231 8.84725 31.0923 8.82576 31.1531 8.78787C31.2137 8.74997 31.2639 8.69691 31.2988 8.63373C31.3337 8.57057 31.3521 8.49937 31.3523 8.42691V7.33034C31.3521 7.25186 31.3305 7.17496 31.2899 7.10819C31.2493 7.04142 31.1913 6.98738 31.1225 6.95206L29.8188 6.28477C29.4579 6.10124 29.0605 6.00385 28.6571 6H23.5257C23.1289 6 22.7485 6.16031 22.4679 6.44567C22.1873 6.73102 22.0297 7.11805 22.0297 7.52161V8.82644C22.0297 8.93916 22.0737 9.04728 22.1521 9.12699C22.2305 9.2067 22.3368 9.25148 22.4476 9.25148H23.0995V10.9517H22.6816C22.5708 10.9517 22.4645 10.9964 22.3861 11.0761C22.3079 11.1558 22.2637 11.2639 22.2637 11.3766V12.0397H21.7707C21.6599 12.0397 21.5536 12.0844 21.4752 12.1642C21.3968 12.2439 21.3528 12.3519 21.3528 12.4646V14.6622H20.5965C19.3775 14.6622 18.2083 15.1547 17.3463 16.0315C16.4843 16.9083 16 18.0974 16 19.3374V41.15C16 41.3754 16.088 41.5915 16.2448 41.751C16.4015 41.9104 16.6141 42 16.8357 42H31.1643C31.3859 42 31.5985 41.9104 31.7552 41.751C31.912 41.5915 32 41.3754 32 41.15V19.3502C32 18.7362 31.8811 18.1283 31.6501 17.561C31.4191 16.9937 31.0805 16.4784 30.6537 16.0443C30.2269 15.6101 29.7201 15.2657 29.1625 15.0307C28.6048 14.7958 28.0071 14.6749 27.4035 14.6749ZM16.8483 19.3502C16.8483 18.3357 17.2445 17.3627 17.9497 16.6453C18.6551 15.928 19.6116 15.5249 20.6091 15.5249H27.4035C28.4009 15.5249 29.3575 15.928 30.0628 16.6453C30.768 17.3627 31.1643 18.3357 31.1643 19.3502V41.15H16.8357L16.8483 19.3502ZM22.1885 12.9024H25.7989V14.6749H22.1885V12.9024ZM22.8655 7.52161C22.8655 7.34351 22.9351 7.17269 23.0589 7.04676C23.1827 6.92081 23.3507 6.85006 23.5257 6.85006H28.6571C28.9372 6.85086 29.2132 6.91779 29.4636 7.04558L30.5375 7.59386V7.73837L29.9107 7.42386C29.4824 7.20642 29.0104 7.09293 28.5317 7.09232H26.76C26.5177 7.09239 26.2805 7.16388 26.0773 7.29815C25.8741 7.43241 25.7136 7.62371 25.6151 7.84888L25.3727 8.40142H22.8655V7.52161ZM24.2653 9.25148V10.9517H23.7221V9.25148H24.2653ZM24.9088 11.8017V12.0397H23.0828V11.8017H24.9088Z" fill="url(#paint1_linear_8_212)"/>
<path d="M27.4035 14.6749H26.6347V12.4775C26.6347 12.3647 26.5907 12.2567 26.5123 12.1769C26.4339 12.0972 26.3276 12.0524 26.2168 12.0524H25.732V11.3893C25.732 11.2766 25.688 11.1685 25.6096 11.0889C25.5313 11.0091 25.4251 10.9644 25.3141 10.9644H24.8963V9.26423H25.6485C25.7288 9.26405 25.8075 9.2403 25.8749 9.19583C25.9424 9.15136 25.9957 9.08802 26.0287 9.01346L26.3839 8.21015C26.4169 8.13558 26.4703 8.07226 26.5377 8.02778C26.6052 7.98331 26.6837 7.95956 26.7641 7.95938H28.5401C28.8883 7.96035 29.2315 8.04328 29.5429 8.20165L30.7464 8.80519C30.81 8.8378 30.8808 8.85332 30.952 8.85029C31.0231 8.84725 31.0923 8.82576 31.1531 8.78787C31.2137 8.74997 31.2639 8.69691 31.2988 8.63373C31.3337 8.57057 31.3521 8.49937 31.3523 8.42691V7.33034C31.3521 7.25186 31.3305 7.17496 31.2899 7.10819C31.2493 7.04142 31.1913 6.98738 31.1225 6.95206L29.8188 6.28477C29.4579 6.10124 29.0605 6.00385 28.6571 6H23.5257C23.1289 6 22.7485 6.16031 22.4679 6.44567C22.1873 6.73102 22.0297 7.11805 22.0297 7.52161V8.82644C22.0297 8.93916 22.0737 9.04728 22.1521 9.12699C22.2305 9.2067 22.3368 9.25148 22.4476 9.25148H23.0995V10.9517H22.6816C22.5708 10.9517 22.4645 10.9964 22.3861 11.0761C22.3079 11.1558 22.2637 11.2639 22.2637 11.3766V12.0397H21.7707C21.6599 12.0397 21.5536 12.0844 21.4752 12.1642C21.3968 12.2439 21.3528 12.3519 21.3528 12.4646V14.6622H20.5965C19.3775 14.6622 18.2083 15.1547 17.3463 16.0315C16.4843 16.9083 16 18.0974 16 19.3374V41.15C16 41.3754 16.088 41.5915 16.2448 41.751C16.4015 41.9104 16.6141 42 16.8357 42H31.1643C31.3859 42 31.5985 41.9104 31.7552 41.751C31.912 41.5915 32 41.3754 32 41.15V19.3502C32 18.7362 31.8811 18.1283 31.6501 17.561C31.4191 16.9937 31.0805 16.4784 30.6537 16.0443C30.2269 15.6101 29.7201 15.2657 29.1625 15.0307C28.6048 14.7958 28.0071 14.6749 27.4035 14.6749ZM16.8483 19.3502C16.8483 18.3357 17.2445 17.3627 17.9497 16.6453C18.6551 15.928 19.6116 15.5249 20.6091 15.5249H27.4035C28.4009 15.5249 29.3575 15.928 30.0628 16.6453C30.768 17.3627 31.1643 18.3357 31.1643 19.3502V41.15H16.8357L16.8483 19.3502ZM22.1885 12.9024H25.7989V14.6749H22.1885V12.9024ZM22.8655 7.52161C22.8655 7.34351 22.9351 7.17269 23.0589 7.04676C23.1827 6.92081 23.3507 6.85006 23.5257 6.85006H28.6571C28.9372 6.85086 29.2132 6.91779 29.4636 7.04558L30.5375 7.59386V7.73837L29.9107 7.42386C29.4824 7.20642 29.0104 7.09293 28.5317 7.09232H26.76C26.5177 7.09239 26.2805 7.16388 26.0773 7.29815C25.8741 7.43241 25.7136 7.62371 25.6151 7.84888L25.3727 8.40142H22.8655V7.52161ZM24.2653 9.25148V10.9517H23.7221V9.25148H24.2653ZM24.9088 11.8017V12.0397H23.0828V11.8017H24.9088Z" stroke="url(#paint2_linear_8_212)" mask="url(#path-2-outside-1_8_212)"/>
</g>
</g>
<defs>
<linearGradient id="paint0_linear_8_212" x1="190" y1="0" x2="190" y2="860" gradientUnits="userSpaceOnUse">
<stop stop-color="#090710"/>
<stop offset="1" stop-color="#1F1D23"/>
</linearGradient>
<linearGradient id="paint1_linear_8_212" x1="16" y1="24" x2="32" y2="24" gradientUnits="userSpaceOnUse">
<stop stop-color="#1DC9CE"/>
<stop offset="1" stop-color="#009ED5"/>
</linearGradient>
<linearGradient id="paint2_linear_8_212" x1="16" y1="24" x2="32" y2="24" gradientUnits="userSpaceOnUse">
<stop stop-color="#1DC9CE"/>
<stop offset="1" stop-color="#009ED5"/>
</linearGradient>
<clipPath id="clip0_8_212">
<rect width="380" height="11612" fill="white" transform="translate(-19 -5453)"/>
</clipPath>
<clipPath id="clip1_8_212">
<rect width="380" height="860" fill="white" transform="translate(-19 -499.893)"/>
</clipPath>
</defs>
</svg>
