<svg width="70" height="70" viewBox="0 0 70 70" fill="none" xmlns="http://www.w3.org/2000/svg">
<g id="24 / basic / flame">
<path id="Vector" d="M51.534 26.9L44.334 30.5M44.334 30.5L43.434 30.95L35.334 35M44.334 30.5V36.8M44.334 30.5L27.234 21.5M35.334 35L19.134 26.9M35.334 35V52.1M41.7744 19.4876L45.3744 21.3776C49.2462 23.4098 51.183 24.425 52.2594 26.252C53.334 28.0772 53.334 30.3506 53.334 34.8956V35.1062C53.334 39.6494 53.334 41.9228 52.2594 43.748C51.183 45.575 49.2462 46.592 45.3744 48.6242L41.7744 50.5124C38.6136 52.1702 37.0332 53 35.334 53C33.6348 53 32.0544 52.172 28.8936 50.5124L25.2936 48.6224C21.4218 46.5902 19.485 45.575 18.4086 43.748C17.334 41.9228 17.334 39.6494 17.334 35.108V34.8974C17.334 30.3524 17.334 28.079 18.4086 26.2538C19.485 24.4268 21.4218 23.4098 25.2936 21.3794L28.8936 19.4894C32.0544 17.8298 33.6348 17 35.334 17C37.0332 17 38.6136 17.828 41.7744 19.4876Z" stroke="url(#paint0_linear_245_768)" stroke-width="2.5" stroke-linecap="round"/>
</g>
<defs>
<linearGradient id="paint0_linear_245_768" x1="17.334" y1="35" x2="53.334" y2="35" gradientUnits="userSpaceOnUse">
<stop stop-color="#1DC9CE"/>
<stop offset="1" stop-color="#009ED5"/>
</linearGradient>
</defs>
</svg>
