<svg width="48" height="48" viewBox="0 0 48 48" fill="none" xmlns="http://www.w3.org/2000/svg">
<g id="icon 62">
<path id="Vector" d="M35.6398 36.3162V39.4667C35.6398 39.7612 35.3825 40 35.065 40C34.7476 40 34.4902 39.7612 34.4902 39.4667V36.3162C34.4902 33.8633 32.3509 31.8781 29.7069 31.8781C28.4559 31.8781 27.3209 31.2868 26.6707 30.2963C26.5055 30.0447 26.5914 29.7166 26.8625 29.5633C27.1335 29.41 27.4872 29.4898 27.6524 29.7413C28.0924 30.4114 28.8604 30.8114 29.7069 30.8114C32.986 30.8114 35.6398 33.2734 35.6398 36.3162ZM26.0499 32.1863L24 33.6588L20.5147 31.1551C21.2671 30.5944 21.7536 29.7788 21.8324 28.8525C22.5202 29.0403 23.2476 29.1416 24.0001 29.1416C28.2393 29.1416 31.6881 25.9416 31.6881 22.0083C31.6881 21.9668 31.6891 18.2741 31.6863 18.2328C31.6667 17.9443 31.4074 17.7333 31.1133 17.7333C31.0149 17.7333 30.3067 17.8633 29.6134 17.4763C28.5322 16.8727 28.5266 15.5498 28.5267 15.5365C28.5295 15.1032 28.0014 14.8475 27.6198 15.0979C25.2522 16.6531 22.4799 17.7076 19.4696 18.0986C19.1552 18.1395 18.936 18.409 18.9801 18.7007C19.0203 18.9674 19.2665 19.1602 19.5486 19.1602C19.6391 19.1602 21.5029 18.9485 23.6216 18.2345C24.9866 17.7745 26.2945 17.1743 27.5208 16.4457C27.9445 17.9207 29.1327 18.7413 30.5386 18.8154V22.0083C30.5386 25.3535 27.6055 28.0749 24.0002 28.0749C20.3949 28.0749 17.4618 25.3535 17.4618 22.0083V18.2667C17.4618 17.9721 17.2044 17.7333 16.887 17.7333C16.5695 17.7333 16.3122 17.9721 16.3122 18.2667V22.0083C16.3122 24.8445 18.1054 27.2991 20.6951 28.448V28.5887C20.6951 29.8181 19.6213 30.8114 18.2933 30.8114C17.5661 30.8114 16.8496 30.9335 16.1719 31.1739L15.8007 30.8998C12.8886 28.7492 12.3431 24.9527 14.3292 22.1866C15.1756 21.0077 15.6655 19.5977 15.6655 18.0891V15.2003C15.6655 11.8182 18.6309 9.06667 22.2758 9.06667H25.7246C29.3695 9.06667 32.3349 11.8181 32.3349 15.2V18.0889C32.3349 19.5563 32.7948 20.9703 33.6649 22.1779C35.2562 24.3867 35.2531 27.2855 33.6088 29.4994C33.4286 29.7419 33.4945 30.0741 33.7558 30.2412C34.0172 30.4083 34.3751 30.3472 34.5553 30.1047C36.4694 27.5277 36.4717 24.1544 34.6206 21.5851C33.8773 20.5535 33.4844 19.3445 33.4844 18.0889V15.2C33.4844 11.2299 30.0033 8 25.7245 8H22.2757C17.9969 8 14.5158 11.2301 14.5158 15.2003V18.0889C14.5158 19.3409 14.1204 20.5533 13.3723 21.5953C11.0547 24.8235 11.7115 29.2139 15.0483 31.7067C13.4091 32.7045 12.3603 34.3989 12.3603 36.3162V39.4667C12.3603 39.7612 12.6177 40 12.9351 40C13.2526 40 13.5099 39.7612 13.5099 39.4667V36.3162C13.5099 33.8632 15.6493 31.8781 18.2932 31.8781C18.6742 31.8781 19.0505 31.8221 19.4115 31.7116L23.6482 34.755C23.8554 34.9038 24.1448 34.9038 24.352 34.755L26.7537 33.0297C27.0048 32.8494 27.0507 32.5145 26.8563 32.2815C26.662 32.0487 26.3011 32.006 26.0499 32.1863Z" fill="url(#paint0_linear_339_5350)" stroke="url(#paint1_linear_339_5350)" stroke-width="0.5"/>
</g>
<defs>
<linearGradient id="paint0_linear_339_5350" x1="12" y1="24" x2="36" y2="24" gradientUnits="userSpaceOnUse">
<stop stop-color="#1DC9CE"/>
<stop offset="1" stop-color="#009ED5"/>
</linearGradient>
<linearGradient id="paint1_linear_339_5350" x1="12" y1="24" x2="36" y2="24" gradientUnits="userSpaceOnUse">
<stop stop-color="#1DC9CE"/>
<stop offset="1" stop-color="#009ED5"/>
</linearGradient>
</defs>
</svg>
