<svg width="60" height="60" viewBox="0 0 60 60" fill="none" xmlns="http://www.w3.org/2000/svg">
<g id="icon 60">
<g id="Vector">
<path d="M30 14.8439L43.2353 20.691V29.0133C43.2353 37.0033 37.5529 44.3954 30 46.289C22.4471 44.3954 16.7647 37.0033 16.7647 29.0133V20.691M30 48C38.6471 45.9568 45 37.8173 45 29.0133V19.6445L30 13L15 19.6445V29.0133C15 37.8173 21.3529 45.9568 30 48Z" fill="url(#paint0_linear_339_2473)"/>
<path d="M30 14.8439L43.2353 20.691V29.0133C43.2353 37.0033 37.5529 44.3954 30 46.289C22.4471 44.3954 16.7647 37.0033 16.7647 29.0133V20.691M30 48C38.6471 45.9568 45 37.8173 45 29.0133V19.6445L30 13L15 19.6445V29.0133C15 37.8173 21.3529 45.9568 30 48Z" stroke="url(#paint1_linear_339_2473)" stroke-linecap="round"/>
</g>
<path id="Vector_2" d="M33.7647 25.5611L28.8031 30.5427L27.1616 28.8822C26.8142 28.5347 26.3432 28.3395 25.852 28.3395C25.3608 28.3395 24.8898 28.5347 24.5424 28.8822C24.1951 29.2296 24 29.7008 24 30.1922C24 30.6835 24.1951 31.1547 24.5424 31.5021L27.4936 34.4542C27.665 34.6272 27.869 34.7644 28.0938 34.8581C28.3185 34.9518 28.5596 35 28.8031 35C29.0466 35 29.2877 34.9518 29.5124 34.8581C29.7372 34.7644 29.9412 34.6272 30.1127 34.4542L36.4576 28.1626C36.8049 27.8152 37 27.3439 37 26.8526C37 26.3613 36.8049 25.89 36.4576 25.5426C36.1102 25.1952 35.6392 25 35.148 25C34.6568 25 34.1858 25.1952 33.8384 25.5426L33.7647 25.5611Z" fill="url(#paint2_linear_339_2473)"/>
</g>
<defs>
<linearGradient id="paint0_linear_339_2473" x1="15" y1="30.5" x2="45" y2="30.5" gradientUnits="userSpaceOnUse">
<stop stop-color="#1DC9CE"/>
<stop offset="1" stop-color="#009ED5"/>
</linearGradient>
<linearGradient id="paint1_linear_339_2473" x1="15" y1="30.5" x2="45" y2="30.5" gradientUnits="userSpaceOnUse">
<stop stop-color="#1DC9CE"/>
<stop offset="1" stop-color="#009ED5"/>
</linearGradient>
<linearGradient id="paint2_linear_339_2473" x1="24" y1="30" x2="37" y2="30" gradientUnits="userSpaceOnUse">
<stop stop-color="#1DC9CE"/>
<stop offset="1" stop-color="#009ED5"/>
</linearGradient>
</defs>
</svg>
