<svg width="48" height="48" viewBox="0 0 48 48" fill="none" xmlns="http://www.w3.org/2000/svg">
<g id="icon 62">
<path id="Vector" d="M18.8079 38.85H18.8072C18.1316 38.85 17.5572 38.6116 17.0759 38.1308C16.5947 37.6499 16.3556 37.0757 16.3548 36.3998C16.354 35.7242 16.5929 35.1506 17.0757 34.6708C17.5589 34.1905 18.1336 33.9516 18.8076 33.95C19.481 33.9483 20.0558 34.1869 20.5398 34.6705C21.0238 35.154 21.2621 35.7277 21.2596 36.3994C21.2572 37.072 21.0185 37.6468 20.5392 38.1314C20.0609 38.615 19.4867 38.8532 18.8079 38.85ZM31.82 38.85H31.8192C31.1436 38.85 30.5692 38.6116 30.088 38.1308C29.6067 37.6499 29.3677 37.0757 29.3668 36.3998C29.366 35.7242 29.6049 35.1506 30.0877 34.6708C30.5709 34.1905 31.1456 33.9516 31.8196 33.95C32.493 33.9483 33.0678 34.1869 33.5518 34.6705C34.0358 35.154 34.2741 35.7277 34.2716 36.3994C34.2692 37.072 34.0305 37.6468 33.5512 38.1314C33.0729 38.615 32.4987 38.8532 31.82 38.85ZM17.7012 18.05H17.4627L17.566 18.265L20.6889 24.7649L20.7297 24.85H20.8241H29.9325H30.0211L30.0639 24.7723L33.6422 18.2723L33.7646 18.05H33.5108H17.7012ZM16.3295 15.6643L16.3702 15.75H16.4651H35.6578C36.1012 15.75 36.4325 15.9422 36.6669 16.3427C36.9008 16.7423 36.9104 17.1362 36.6969 17.5437L32.0785 25.8622L32.0782 25.8626C31.8517 26.2741 31.5503 26.5897 31.1739 26.8136C30.797 27.0377 30.3842 27.15 29.9325 27.15H20.2385H20.1499L20.1071 27.2276L18.6758 29.8276L18.5534 30.05H18.8072H33.1204C33.4513 30.05 33.7218 30.1603 33.9422 30.3805C34.1625 30.6006 34.2724 30.8703 34.2716 31.1996C34.2709 31.5294 34.1604 31.7999 33.9405 32.0211C33.7212 32.2417 33.4516 32.3515 33.1211 32.35H33.1204H18.8072C17.8856 32.35 17.1972 31.9515 16.7248 31.1413C16.2514 30.3296 16.2325 29.5347 16.6618 28.7367C16.662 28.7365 16.6621 28.7363 16.6622 28.7361L18.4181 25.5524L18.4552 25.4851L18.4223 25.4157L13.7379 15.5357L13.6973 15.45H13.6024H12.3012C11.9703 15.45 11.7004 15.3396 11.481 15.1197C11.2612 14.8994 11.1508 14.6294 11.15 14.2996C11.1492 13.9705 11.2594 13.7009 11.4806 13.4807C11.702 13.2602 11.9723 13.15 12.3012 13.15H14.4157C14.6254 13.15 14.8266 13.2068 15.0217 13.3237C15.2115 13.4374 15.3539 13.5979 15.4502 13.8096L15.4502 13.8096L15.4512 13.8118L16.3295 15.6643Z" fill="url(#paint0_linear_339_5336)" stroke="#3C383F" stroke-width="0.3"/>
</g>
<defs>
<linearGradient id="paint0_linear_339_5336" x1="11" y1="26" x2="37" y2="26" gradientUnits="userSpaceOnUse">
<stop stop-color="#1DC9CE"/>
<stop offset="1" stop-color="#009ED5"/>
</linearGradient>
</defs>
</svg>
