<svg width="48" height="48" viewBox="0 0 48 48" fill="none" xmlns="http://www.w3.org/2000/svg">
<g id="icon 62">
<path id="Vector" d="M11.6933 37C10.9256 37 10.285 36.7305 9.77167 36.1915C9.25833 35.6525 9.00111 34.9793 9 34.172V17.078C9 16.2718 9.25722 15.5993 9.77167 15.0603C10.2861 14.5213 10.9261 14.2512 11.6917 14.25H19V11.8263C19 11.0213 19.2572 10.3487 19.7717 9.8085C20.2861 9.26834 20.9267 8.99884 21.6933 9H26.3083C27.075 9 27.7156 9.2695 28.23 9.8085C28.7444 10.3475 29.0011 11.0201 29 11.8263V14.25H36.3083C37.075 14.25 37.715 14.5201 38.2283 15.0603C38.7417 15.6004 38.9989 16.273 39 17.078V34.1737C39 34.9787 38.7428 35.6513 38.2283 36.1915C37.7139 36.7317 37.0739 37.0012 36.3083 37H11.6933ZM20.6667 14.25H27.3333V11.8263C27.3333 11.5579 27.2267 11.3112 27.0133 11.086C26.8 10.8608 26.565 10.7488 26.3083 10.75H21.6917C21.4361 10.75 21.2011 10.862 20.9867 11.086C20.7722 11.31 20.6656 11.5568 20.6667 11.8263V14.25ZM37.3333 27.375H27.3333V30H20.6667V27.375H10.6667V34.1737C10.6667 34.4421 10.7733 34.6888 10.9867 34.914C11.2 35.1392 11.435 35.2512 11.6917 35.25H36.3083C36.5639 35.25 36.7989 35.138 37.0133 34.914C37.2278 34.69 37.3344 34.4427 37.3333 34.172V27.375ZM22.3333 28.25H25.6667V24.75H22.3333V28.25ZM10.6667 25.625H20.6667V23H27.3333V25.625H37.3333V17.078C37.3333 16.8085 37.2267 16.5612 37.0133 16.336C36.8 16.1108 36.565 15.9988 36.3083 16H11.6917C11.4361 16 11.2011 16.112 10.9867 16.336C10.7722 16.56 10.6656 16.8073 10.6667 17.078V25.625Z" fill="url(#paint0_linear_339_5340)"/>
</g>
<defs>
<linearGradient id="paint0_linear_339_5340" x1="9" y1="23" x2="39" y2="23" gradientUnits="userSpaceOnUse">
<stop stop-color="#1DC9CE"/>
<stop offset="1" stop-color="#009ED5"/>
</linearGradient>
</defs>
</svg>
