<svg width="48" height="48" viewBox="0 0 48 48" fill="none" xmlns="http://www.w3.org/2000/svg">
<g id="icon 62">
<path id="Vector" fill-rule="evenodd" clip-rule="evenodd" d="M18.0757 15.3841C18.0756 14.9777 17.9691 14.578 17.7663 14.223C17.5634 13.868 17.2709 13.5695 16.9165 13.3559C16.5622 13.1423 16.1577 13.0206 15.7416 13.0024C15.3255 12.9842 14.9115 13.0701 14.5389 13.252L11.7464 14.6144C11.3407 14.8124 10.9995 15.1168 10.761 15.4934C10.5226 15.8699 10.3963 16.3039 10.3963 16.7465V21.6948H10.0472C9.76946 21.6948 9.5031 21.8024 9.30672 21.9941C9.11033 22.1857 9 22.4456 9 22.7166V30.891C9 32.246 9.55164 33.5455 10.5336 34.5036C11.5155 35.4617 12.8473 36 14.236 36C15.6246 36 16.9564 35.4617 17.9383 34.5036C18.9203 33.5455 19.4719 32.246 19.4719 30.891V22.7166C19.4719 22.4456 19.3616 22.1857 19.1652 21.9941C18.9688 21.8024 18.7025 21.6948 18.4247 21.6948H18.0757V15.3841ZM11.0944 23.7384H17.3775V30.891C17.3775 31.2935 17.2963 31.6922 17.1384 32.0641C16.9805 32.436 16.7491 32.7739 16.4574 33.0586C16.1657 33.3432 15.8193 33.569 15.4382 33.7231C15.057 33.8771 14.6485 33.9564 14.236 33.9564C13.8234 33.9564 13.4149 33.8771 13.0337 33.7231C12.6526 33.569 12.3062 33.3432 12.0145 33.0586C11.7228 32.7739 11.4914 32.436 11.3335 32.0641C11.1756 31.6922 11.0944 31.2935 11.0944 30.891V23.7384ZM15.9813 21.6948V15.3841C15.9814 15.326 15.9663 15.2688 15.9373 15.218C15.9084 15.1672 15.8666 15.1244 15.8159 15.0938C15.7652 15.0632 15.7074 15.0458 15.6478 15.0432C15.5883 15.0406 15.5291 15.0529 15.4758 15.0789L12.6833 16.4413C12.6253 16.4697 12.5765 16.5133 12.5425 16.5672C12.5085 16.6211 12.4905 16.6832 12.4906 16.7465V21.6948H15.9813ZM30.2929 13.5204C28.0689 13.5199 25.9287 14.348 24.3094 15.8354C22.6901 17.3228 21.7139 19.3574 21.5802 21.5236C21.4465 23.6897 22.1654 25.8239 23.5901 27.4902C25.0148 29.1565 27.0377 30.2291 29.2457 30.4891V33.9564H26.1041C25.8264 33.9564 25.56 34.064 25.3636 34.2557C25.1673 34.4473 25.0569 34.7072 25.0569 34.9782C25.0569 35.2492 25.1673 35.5091 25.3636 35.7007C25.56 35.8923 25.8264 36 26.1041 36H34.4817C34.7594 36 35.0257 35.8923 35.2221 35.7007C35.4185 35.5091 35.5288 35.2492 35.5288 34.9782C35.5288 34.7072 35.4185 34.4473 35.2221 34.2557C35.0257 34.064 34.7594 33.9564 34.4817 33.9564H31.3401V30.4891C33.5438 30.224 35.5611 29.1493 36.9812 27.4838C38.4014 25.8184 39.1177 23.6874 38.9842 21.5248C38.8507 19.3622 37.8776 17.3305 36.2629 15.8434C34.6481 14.3563 32.5133 13.5255 30.2929 13.5204ZM30.2929 28.5068C31.1638 28.5068 32.0263 28.3394 32.8309 28.0142C33.6356 27.689 34.3667 27.2123 34.9826 26.6114C35.5984 26.0104 36.087 25.297 36.4203 24.5119C36.7536 23.7267 36.9251 22.8852 36.9251 22.0354C36.9251 21.1855 36.7536 20.344 36.4203 19.5589C36.087 18.7737 35.5984 18.0603 34.9826 17.4594C34.3667 16.8585 33.6356 16.3818 32.8309 16.0566C32.0263 15.7313 31.1638 15.564 30.2929 15.564C28.5339 15.564 26.847 16.2458 25.6032 17.4594C24.3594 18.673 23.6607 20.319 23.6607 22.0354C23.6607 23.7517 24.3594 25.3977 25.6032 26.6114C26.847 27.825 28.5339 28.5068 30.2929 28.5068Z" fill="url(#paint0_linear_339_5343)"/>
</g>
<defs>
<linearGradient id="paint0_linear_339_5343" x1="9" y1="24.5" x2="39" y2="24.5" gradientUnits="userSpaceOnUse">
<stop stop-color="#1DC9CE"/>
<stop offset="1" stop-color="#009ED5"/>
</linearGradient>
</defs>
</svg>
