<svg width="30" height="31" viewBox="0 0 30 31" fill="none" xmlns="http://www.w3.org/2000/svg">
<g id="check_circle">
<mask id="mask0_339_5279" style="mask-type:alpha" maskUnits="userSpaceOnUse" x="0" y="0" width="30" height="31">
<rect id="Bounding box" y="0.606934" width="30" height="30" fill="#D9D9D9"/>
</mask>
<g mask="url(#mask0_339_5279)">
<path id="check_circle_2" d="M13.88 19.2869L19.52 13.6469L18.4 12.5269L13.88 17.0469L11.6 14.7669L10.48 15.8869L13.88 19.2869ZM15 23.6069C13.8933 23.6069 12.8533 23.3969 11.88 22.9769C10.9067 22.5569 10.06 21.9869 9.34 21.2669C8.62 20.5469 8.05 19.7003 7.63 18.7269C7.21 17.7536 7 16.7136 7 15.6069C7 14.5003 7.21 13.4603 7.63 12.4869C8.05 11.5136 8.62 10.6669 9.34 9.94693C10.06 9.22693 10.9067 8.65693 11.88 8.23693C12.8533 7.81693 13.8933 7.60693 15 7.60693C16.1067 7.60693 17.1467 7.81693 18.12 8.23693C19.0933 8.65693 19.94 9.22693 20.66 9.94693C21.38 10.6669 21.95 11.5136 22.37 12.4869C22.79 13.4603 23 14.5003 23 15.6069C23 16.7136 22.79 17.7536 22.37 18.7269C21.95 19.7003 21.38 20.5469 20.66 21.2669C19.94 21.9869 19.0933 22.5569 18.12 22.9769C17.1467 23.3969 16.1067 23.6069 15 23.6069Z" fill="white"/>
</g>
</g>
</svg>
