<svg width="36" height="36" viewBox="0 0 36 36" fill="none" xmlns="http://www.w3.org/2000/svg">
<g id="Group 618">
<path id="Subtract" fill-rule="evenodd" clip-rule="evenodd" d="M25.9651 17.9338C25.9634 22.3275 22.3892 25.9026 17.9946 25.9044H17.9913C16.6573 25.9039 15.3465 25.5692 14.1824 24.9342L9.95703 26.0426L11.0878 21.9123C10.3903 20.7035 10.0233 19.3323 10.0239 17.9276C10.0256 13.5329 13.6012 9.95747 17.9945 9.95747C20.1268 9.95839 22.128 10.7885 23.6328 12.2951C25.1377 13.8016 25.966 15.8041 25.9651 17.9338ZM21.7368 19.6497C21.8757 19.7169 21.9695 19.7622 22.0096 19.8291C22.0593 19.9121 22.0593 20.3108 21.8935 20.7761C21.7274 21.2413 20.9318 21.6659 20.5491 21.7231C20.206 21.7744 19.7718 21.7958 19.2947 21.6442C19.0055 21.5524 18.6345 21.4298 18.1594 21.2246C16.2923 20.4184 15.0306 18.6089 14.7921 18.2668C14.7754 18.2429 14.7637 18.2261 14.7572 18.2174L14.7556 18.2153C14.6502 18.0747 13.944 17.1324 13.944 16.1572C13.944 15.2398 14.3946 14.759 14.602 14.5377C14.6162 14.5225 14.6293 14.5086 14.641 14.4958C14.8236 14.2964 15.0393 14.2465 15.1721 14.2465C15.3048 14.2465 15.4378 14.2478 15.5538 14.2536C15.5681 14.2543 15.583 14.2542 15.5984 14.2541C15.7145 14.2534 15.8592 14.2526 16.0019 14.5955C16.0568 14.7274 16.1371 14.923 16.2219 15.1293C16.3933 15.5465 16.5826 16.0075 16.6159 16.0742C16.6657 16.1739 16.6989 16.2902 16.6325 16.4232C16.6226 16.4431 16.6133 16.4619 16.6045 16.4799C16.5547 16.5817 16.518 16.6566 16.4334 16.7554C16.4001 16.7942 16.3657 16.8361 16.3313 16.878C16.2628 16.9614 16.1943 17.0449 16.1346 17.1043C16.0349 17.2036 15.9311 17.3114 16.0473 17.5107C16.1635 17.7101 16.5632 18.3623 17.1553 18.8904C17.7917 19.4581 18.3448 19.698 18.6252 19.8196C18.68 19.8434 18.7243 19.8626 18.7569 19.8789C18.9559 19.9786 19.0721 19.9619 19.1883 19.8291C19.3045 19.6961 19.6862 19.2475 19.8189 19.0481C19.9516 18.8488 20.0845 18.882 20.267 18.9485C20.4496 19.015 21.4287 19.4967 21.6279 19.5964C21.6668 19.6159 21.7031 19.6335 21.7368 19.6497Z" fill="white"/>
</g>
</svg>
