<svg width="36" height="36" viewBox="0 0 36 36" fill="none" xmlns="http://www.w3.org/2000/svg">
<path d="M25.9981 23.5243C25.891 23.9867 25.6382 24.4021 25.2773 24.7089C24.8744 25.1203 24.3935 25.4465 23.863 25.6682C23.3324 25.89 22.763 26.0028 22.1884 25.9999H21.901C20.7082 25.9375 19.5391 25.6413 18.4597 25.128C18.198 25.0047 17.9436 24.8894 17.6409 24.7492C16.3759 24.0319 15.2148 23.1439 14.19 22.11C12.8579 20.8557 11.7663 19.3668 10.9695 17.7171C10.5308 16.8171 10.2353 15.8537 10.0937 14.8619C9.89592 13.8283 10.0128 12.7589 10.4292 11.7931C10.6882 11.3546 11.0053 10.9534 11.3716 10.6004C11.539 10.4171 11.7413 10.2695 11.9667 10.1664C12.192 10.0632 12.4357 10.0066 12.6833 10C12.9532 10.0286 13.2148 10.1111 13.4526 10.2426C13.6903 10.3741 13.8996 10.5519 14.068 10.7656C14.4453 11.1846 14.8868 11.5876 15.2881 12.0147L15.8051 12.5256C16.1101 12.794 16.2988 13.1719 16.3293 13.5781C16.3301 13.952 16.1928 14.3123 15.944 14.5903C15.7873 14.7853 15.6206 14.9719 15.4447 15.1496L15.2721 15.3309C15.1716 15.4247 15.0931 15.5397 15.0425 15.6678C15.0008 15.7919 14.9863 15.924 15.0024 16.0546C15.134 16.4124 15.3403 16.738 15.6084 17.0087C16.0259 17.5761 16.4272 18.0701 16.8783 18.6543C17.6564 19.5556 18.5788 20.3201 19.6076 20.9165C19.7064 20.997 19.8244 21.051 19.9512 21.0728C20.0636 21.0897 20.1768 21.0728 20.2787 21.0228C20.5913 20.8549 20.8694 20.629 21.0983 20.3572C21.3873 19.9994 21.8063 19.7721 22.2622 19.7229C22.4811 19.7238 22.6976 19.7686 22.8989 19.8548C23.1002 19.9411 23.2822 20.0669 23.4342 20.225C23.6215 20.3873 23.7989 20.56 23.9664 20.7432L24.2121 21.0067L24.4665 21.2533C24.6215 21.4097 24.7692 21.5499 24.9161 21.7143C25.1836 21.9453 25.4325 22.1949 25.6626 22.4629C25.8978 22.7643 26.0166 23.1415 25.9981 23.5243Z" fill="white"/>
</svg>
