<svg width="48" height="48" viewBox="0 0 48 48" fill="none" xmlns="http://www.w3.org/2000/svg">
<g id="zen-new-icon 1" clip-path="url(#clip0_245_901)">
<path id="Subtract" fill-rule="evenodd" clip-rule="evenodd" d="M0.00390625 23.5144C9.87466 23.4008 15.3993 22.7547 19.0765 19.0775C22.7537 15.4003 23.3998 9.87563 23.5134 0.00488281C10.6442 0.260352 0.259376 10.6452 0.00390625 23.5144ZM24.9465 0.0184239C25.0604 9.88069 25.7076 15.4019 29.3831 19.0775C33.0027 22.697 38.4121 23.3798 47.9942 23.5085C47.7388 10.7963 37.5995 0.509613 24.9465 0.0184239ZM47.9805 24.9533C38.4069 25.0825 33.0009 25.7663 29.3831 29.3841C25.7653 33.0019 25.0815 38.4079 24.9523 47.9815C37.4491 47.4934 47.4924 37.4501 47.9805 24.9533ZM23.5076 47.9951C23.3788 38.413 22.696 33.0036 19.0765 29.3841C15.401 25.7086 9.87971 25.0614 0.0174473 24.9475C0.508637 37.6005 10.7954 47.7398 23.5076 47.9951Z" fill="url(#paint0_linear_245_901)"/>
</g>
<defs>
<linearGradient id="paint0_linear_245_901" x1="0.00390625" y1="24" x2="47.9942" y2="24" gradientUnits="userSpaceOnUse">
<stop stop-color="#1DC9CE"/>
<stop offset="1" stop-color="#009ED5"/>
</linearGradient>
<clipPath id="clip0_245_901">
<rect width="48" height="48" fill="white"/>
</clipPath>
</defs>
</svg>
