<svg width="48" height="48" viewBox="0 0 48 48" fill="none" xmlns="http://www.w3.org/2000/svg">
<g id="VK">
<path id="back" d="M0 24C0 10.7452 10.7452 0 24 0C37.2548 0 48 10.7452 48 24C48 37.2548 37.2548 48 24 48C10.7452 48 0 37.2548 0 24Z" fill="url(#paint0_linear_2001_677)"/>
<path id="Vector" d="M25.2505 33C15.6839 33 10.2274 26.6186 10 16H14.792C14.9494 23.7938 18.4822 27.0951 21.2805 27.7758V16H25.7926V22.7217C28.5559 22.4324 31.4591 19.3694 32.4385 16H36.9507C36.5816 17.7475 35.8459 19.402 34.7897 20.8602C33.7334 22.3184 32.3793 23.5488 30.812 24.4745C32.5615 25.3203 34.1067 26.5175 35.3457 27.9871C36.5848 29.4567 37.4894 31.1652 38 33H33.0331C32.5748 31.4064 31.6432 29.9798 30.3552 28.8991C29.0672 27.8185 27.48 27.1317 25.7926 26.9249V33H25.2505Z" fill="#1F1D23"/>
</g>
<defs>
<linearGradient id="paint0_linear_2001_677" x1="0" y1="24" x2="48" y2="24" gradientUnits="userSpaceOnUse">
<stop stop-color="#1DC9CE"/>
<stop offset="1" stop-color="#009ED5"/>
</linearGradient>
</defs>
</svg>
