<svg width="60" height="60" viewBox="0 0 60 60" fill="none" xmlns="http://www.w3.org/2000/svg">
<path d="M18.4758 40.7964L26.5756 32.6966M36.7754 29.0947L34.3509 36.3685C34.3122 36.4851 34.2459 36.5906 34.1577 36.6761C34.0695 36.7617 33.962 36.8247 33.8443 36.8598L18.9811 41.2775C18.8472 41.3173 18.7049 41.3195 18.5698 41.2841C18.4347 41.2486 18.3119 41.1768 18.2148 41.0764C18.1177 40.976 18.0499 40.8509 18.019 40.7147C17.988 40.5784 17.995 40.4364 18.0392 40.3038L22.8655 25.8275C22.9001 25.7236 22.9566 25.6283 23.0313 25.5482C23.106 25.468 23.197 25.4048 23.2982 25.363L30.1546 22.54C30.294 22.4824 30.4473 22.4674 30.5952 22.4969C30.7431 22.5263 30.879 22.5989 30.9857 22.7055L36.5909 28.3132C36.6912 28.4135 36.7616 28.5397 36.7942 28.6777C36.8268 28.8158 36.8203 28.9601 36.7754 29.0947Z" stroke="#019FD6" stroke-width="2" stroke-linecap="round" stroke-linejoin="round"/>
<path d="M36.9272 28.6467L40.5265 25.0461C41.0037 24.5687 41.2718 23.9214 41.2718 23.2464C41.2718 22.5714 41.0037 21.9241 40.5265 21.4467L37.8283 18.7459C37.5919 18.5094 37.3112 18.3219 37.0023 18.1939C36.6934 18.0659 36.3623 18 36.028 18C35.6936 18 35.3625 18.0659 35.0536 18.1939C34.7447 18.3219 34.464 18.5094 34.2276 18.7459L30.6283 22.3465M29.2766 29.9958C29.0993 29.8186 28.8888 29.678 28.6571 29.5821C28.4254 29.4862 28.1772 29.4368 27.9264 29.4369C27.6757 29.437 27.4274 29.4864 27.1958 29.5824C26.9642 29.6784 26.7537 29.8191 26.5765 29.9964C26.3992 30.1738 26.2586 30.3843 26.1627 30.616C26.0668 30.8476 26.0175 31.0959 26.0176 31.3466C26.0176 31.5974 26.0671 31.8456 26.1631 32.0773C26.2591 32.3089 26.3998 32.5193 26.5771 32.6966C26.9353 33.0546 27.4209 33.2556 27.9273 33.2555C28.4337 33.2554 28.9193 33.0541 29.2773 32.696C29.6352 32.3378 29.8363 31.8521 29.8362 31.3457C29.836 30.8394 29.6348 30.3538 29.2766 29.9958Z" stroke="#019FD6" stroke-width="2" stroke-linecap="round" stroke-linejoin="round"/>
</svg>
