<svg width="60" height="60" viewBox="0 0 60 60" fill="none" xmlns="http://www.w3.org/2000/svg">
<path d="M23.7703 40C24.5863 40 25.369 39.6759 25.946 39.0988C26.523 38.5218 26.8472 37.7392 26.8472 36.9231C26.8472 36.1071 26.523 35.3244 25.946 34.7474C25.369 34.1704 24.5863 33.8462 23.7703 33.8462C22.9542 33.8462 22.1716 34.1704 21.5946 34.7474C21.0175 35.3244 20.6934 36.1071 20.6934 36.9231C20.6934 37.7392 21.0175 38.5218 21.5946 39.0988C22.1716 39.6759 22.9542 40 23.7703 40ZM39.1549 40C39.9709 40 40.7536 39.6759 41.3306 39.0988C41.9076 38.5218 42.2318 37.7392 42.2318 36.9231C42.2318 36.1071 41.9076 35.3244 41.3306 34.7474C40.7536 34.1704 39.9709 33.8462 39.1549 33.8462C38.3388 33.8462 37.5562 34.1704 36.9792 34.7474C36.4021 35.3244 36.078 36.1071 36.078 36.9231C36.078 37.7392 36.4021 38.5218 36.9792 39.0988C37.5562 39.6759 38.3388 40 39.1549 40Z" stroke="#019FD6" stroke-width="2" stroke-miterlimit="1.5" stroke-linecap="round" stroke-linejoin="round"/>
<path d="M26.9231 36.9231H34.5385V20.9231C34.5385 20.6783 34.4412 20.4435 34.2681 20.2704C34.095 20.0973 33.8602 20 33.6154 20H13M20.1538 36.9231H17C16.8788 36.9231 16.7587 36.8992 16.6468 36.8528C16.5348 36.8064 16.433 36.7384 16.3473 36.6527C16.2616 36.567 16.1936 36.4652 16.1472 36.3532C16.1008 36.2413 16.0769 36.1212 16.0769 36V28.4615" stroke="#019FD6" stroke-width="2" stroke-linecap="round"/>
<path d="M14.5391 24.6152H20.6929" stroke="#019FD6" stroke-width="2" stroke-linecap="round" stroke-linejoin="round"/>
<path d="M34.5391 24.6152H43.1698C43.3483 24.6153 43.5228 24.667 43.6725 24.7642C43.8221 24.8614 43.9404 24.9999 44.0129 25.1629L46.7668 31.3598C46.8192 31.4775 46.8465 31.6049 46.8468 31.7337V35.9998C46.8468 36.1211 46.8229 36.2411 46.7765 36.3531C46.7301 36.4651 46.6621 36.5668 46.5764 36.6526C46.4907 36.7383 46.3889 36.8063 46.2769 36.8527C46.1649 36.8991 46.0449 36.9229 45.9237 36.9229H43.0006M34.5391 36.9229H36.0775" stroke="#019FD6" stroke-width="2" stroke-linecap="round"/>
</svg>
