<svg width="60" height="60" viewBox="0 0 60 60" fill="none" xmlns="http://www.w3.org/2000/svg">
<path d="M18.8574 25.8215C18.8574 28.8052 20.0427 31.6667 22.1525 33.7765C24.2623 35.8863 27.1237 37.0715 30.1074 37.0715C33.0911 37.0715 35.9526 35.8863 38.0624 33.7765C40.1722 31.6667 41.3574 28.8052 41.3574 25.8215C41.3574 22.8378 40.1722 19.9764 38.0624 17.8666C35.9526 15.7568 33.0911 14.5715 30.1074 14.5715C27.1237 14.5715 24.2623 15.7568 22.1525 17.8666C20.0427 19.9764 18.8574 22.8378 18.8574 25.8215Z" stroke="#019FD6" stroke-width="2" stroke-linecap="round" stroke-linejoin="round"/>
<path d="M25.6068 26.822C25.6068 26.822 26.7318 26.822 27.8568 28.8215C27.8568 28.8215 31.4298 23.822 34.6068 22.8215M37.4313 34.0715L38.4363 38.8865C39.0813 41.9795 39.4053 43.526 38.7408 44.2595C38.0778 44.993 36.9258 44.363 34.6218 43.1015L31.2108 41.234C30.6663 40.937 30.3948 40.787 30.1068 40.787C29.8188 40.787 29.5473 40.937 29.0028 41.234L25.5918 43.1015C23.2878 44.3615 22.1358 44.993 21.4728 44.2595C20.8098 43.526 21.1323 41.9795 21.7773 38.8865L22.7823 34.0715" stroke="#019FD6" stroke-width="2" stroke-linecap="round" stroke-linejoin="round"/>
</svg>
