<svg width="60" height="60" viewBox="0 0 60 60" fill="none" xmlns="http://www.w3.org/2000/svg">
<g id="icon 61">
<path id="Vector" fill-rule="evenodd" clip-rule="evenodd" d="M22.3016 44.5573H33.9746C34.533 44.5573 34.9961 44.0834 34.9961 43.5118C34.9961 42.9402 34.533 42.4663 33.9746 42.4663H22.2744C21.0213 42.4663 20.0134 41.4207 20.0134 40.1521C20.0134 39.7757 20.1087 39.4133 20.2722 39.0787L24.9618 29.9198H34.8395L35.1323 30.4914C35.3911 31.0072 36.004 31.2023 36.508 30.9375C37.012 30.6726 37.2026 30.0453 36.9439 29.5295L34.3423 24.4272V16.6763H35.3639C35.9223 16.6763 36.3854 16.2023 36.3854 15.6308C36.3854 15.0592 35.9223 14.5852 35.3639 14.5852H33.4897C33.4341 14.5771 33.3782 14.5724 33.3221 14.5713H26.5118C26.4562 14.5725 26.4007 14.5771 26.3456 14.5852H24.4673C23.9089 14.5852 23.4458 15.0592 23.4458 15.6308C23.4458 16.2023 23.9089 16.6763 24.4673 16.6763H25.4889V24.4272L18.4879 38.1029C18.1459 38.7749 17.9786 39.5257 18.0022 40.283C18.0258 41.0403 18.2394 41.7787 18.6225 42.4271C19.0056 43.0754 19.5453 43.612 20.1896 43.9851C20.834 44.3582 21.5613 44.5552 22.3016 44.5573ZM27.3958 25.1661L26.0323 27.8287H33.7702L32.4082 25.1661C32.328 25.0165 32.2859 24.8488 32.2856 24.6782V16.6763H27.5184V24.6782C27.5184 24.8455 27.4775 25.0127 27.3958 25.1661ZM37.8156 43.8743C37.9654 44.2785 38.3468 44.5573 38.769 44.5573V44.5713C39.1913 44.5713 39.5726 44.2925 39.7225 43.8882L40.0766 42.9124C40.5125 41.7135 40.7032 41.2116 40.9892 40.9189C41.2752 40.6261 41.7656 40.431 42.9506 39.9849L43.904 39.6224C44.299 39.4691 44.5714 39.0787 44.5714 38.6466C44.5714 38.2144 44.299 37.8241 43.904 37.6707L42.9506 37.3083C41.7792 36.8622 41.2888 36.667 41.0028 36.3743C40.7168 36.0815 40.5261 35.5797 40.0902 34.3668L39.7361 33.391C39.6624 33.1924 39.5321 33.0211 39.362 32.8993C39.192 32.7775 38.9902 32.7108 38.7826 32.7079C38.3604 32.7079 37.979 32.9867 37.8292 33.391L37.4751 34.3668C37.0392 35.5657 36.8485 36.0676 36.5625 36.3603C36.2764 36.6531 35.7861 36.8482 34.6011 37.2943L33.6477 37.6568C33.2527 37.8101 32.9802 38.2005 32.9802 38.6326C32.9802 39.0648 33.2527 39.4551 33.6477 39.6085L34.6011 39.9709C35.7725 40.417 36.2628 40.6122 36.5489 40.9049C36.8349 41.1837 37.0256 41.6856 37.4614 42.8984L37.8156 43.8743ZM37.9926 39.4412C37.6658 39.1066 37.3116 38.8696 36.8349 38.6466C37.298 38.4235 37.6658 38.1865 37.9926 37.852C38.3195 37.5174 38.5511 37.141 38.769 36.667C38.987 37.141 39.2185 37.5174 39.5454 37.852C39.8723 38.1865 40.2401 38.4235 40.7032 38.6466C40.2264 38.8696 39.8723 39.1066 39.5454 39.4412C39.2185 39.7758 38.987 40.1521 38.769 40.6261C38.5511 40.1382 38.3195 39.7758 37.9926 39.4412Z" fill="#019FD6"/>
</g>
</svg>
