<svg width="60" height="60" viewBox="0 0 60 60" fill="none" xmlns="http://www.w3.org/2000/svg">
<g id="icon 61">
<path id="Vector" d="M39.4275 13.1732C39.4275 12.9987 39.2862 12.8572 39.1117 12.8572H20.8861C20.8021 12.8572 20.7219 12.8905 20.6626 12.9496C20.6035 13.009 20.5703 13.0893 20.5703 13.1732V16.3349C20.5703 16.3435 20.5746 16.3507 20.5752 16.359C20.576 16.3673 20.5726 16.3734 20.5738 16.3808L24.9565 46.0918V49.8482C24.9571 50.2672 25.1233 50.669 25.4192 50.9651C25.7152 51.2616 26.1164 51.428 26.5347 51.4286H33.4616C33.8799 51.428 34.281 51.2616 34.577 50.9651C34.8727 50.6687 35.0392 50.2669 35.0398 49.8479V46.1024L39.424 16.3812C39.4251 16.3737 39.422 16.3668 39.4226 16.3594C39.4231 16.3519 39.4274 16.3439 39.4274 16.3353L39.4275 13.1732ZM34.4083 49.8482C34.4077 50.372 33.984 50.7961 33.4613 50.7967H26.5348C26.0121 50.7962 25.5884 50.372 25.5878 49.8482V46.3961H34.4083V49.8482ZM34.4519 45.7606L25.5455 45.7609L21.2516 16.6517L38.7459 16.6514L34.4519 45.7606ZM38.7962 16.0188H21.2014V13.4896H38.7962V16.0188Z" fill="#019FD6" stroke="#019FD6"/>
</g>
</svg>
