<svg width="60" height="60" viewBox="0 0 60 60" fill="none" xmlns="http://www.w3.org/2000/svg">
<g id="icon 61">
<path id="Vector" d="M23.8079 45.85H23.8072C23.1316 45.85 22.5572 45.6116 22.0759 45.1308C21.5947 44.6499 21.3556 44.0757 21.3548 43.3998C21.354 42.7242 21.5929 42.1506 22.0757 41.6708C22.5589 41.1905 23.1336 40.9516 23.8076 40.95C24.481 40.9483 25.0558 41.1869 25.5398 41.6705C26.0238 42.154 26.2621 42.7277 26.2596 43.3994C26.2572 44.072 26.0185 44.6468 25.5392 45.1314C25.0609 45.615 24.4867 45.8532 23.8079 45.85ZM36.82 45.85H36.8192C36.1436 45.85 35.5692 45.6116 35.088 45.1308C34.6067 44.6499 34.3677 44.0757 34.3668 43.3998C34.366 42.7242 34.6049 42.1506 35.0877 41.6708C35.5709 41.1905 36.1456 40.9516 36.8196 40.95C37.493 40.9483 38.0678 41.1869 38.5518 41.6705C39.0358 42.154 39.2741 42.7277 39.2716 43.3994C39.2692 44.072 39.0305 44.6468 38.5512 45.1314C38.0729 45.615 37.4987 45.8532 36.82 45.85ZM22.7012 25.05H22.4627L22.566 25.265L25.6889 31.7649L25.7297 31.85H25.8241H34.9325H35.0211L35.0639 31.7723L38.6422 25.2723L38.7646 25.05H38.5108H22.7012ZM21.3295 22.6643L21.3702 22.75H21.4651H40.6578C41.1012 22.75 41.4325 22.9422 41.6669 23.3427C41.9008 23.7423 41.9104 24.1362 41.6969 24.5437L37.0785 32.8622L37.0782 32.8626C36.8517 33.2741 36.5503 33.5897 36.1739 33.8136C35.797 34.0377 35.3842 34.15 34.9325 34.15H25.2385H25.1499L25.1071 34.2276L23.6758 36.8276L23.5534 37.05H23.8072H38.1204C38.4513 37.05 38.7218 37.1603 38.9422 37.3805C39.1625 37.6006 39.2724 37.8703 39.2716 38.1996C39.2709 38.5294 39.1604 38.7999 38.9405 39.0211C38.7212 39.2417 38.4516 39.3515 38.1211 39.35H38.1204H23.8072C22.8856 39.35 22.1972 38.9515 21.7248 38.1413C21.2514 37.3296 21.2325 36.5347 21.6618 35.7367C21.662 35.7365 21.6621 35.7363 21.6622 35.7361L23.4181 32.5524L23.4552 32.4851L23.4223 32.4157L18.7379 22.5357L18.6973 22.45H18.6024H17.3012C16.9703 22.45 16.7004 22.3396 16.481 22.1197C16.2612 21.8994 16.1508 21.6294 16.15 21.2996C16.1492 20.9705 16.2594 20.7009 16.4806 20.4807C16.702 20.2602 16.9723 20.15 17.3012 20.15H19.4157C19.6254 20.15 19.8266 20.2068 20.0217 20.3237C20.2115 20.4374 20.3539 20.5979 20.4502 20.8096L20.4502 20.8096L20.4512 20.8118L21.3295 22.6643Z" fill="#019FD6" stroke="white" stroke-width="0.3"/>
</g>
</svg>
