<svg width="60" height="60" viewBox="0 0 60 60" fill="none" xmlns="http://www.w3.org/2000/svg">
<g id="icon 61">
<path id="Vector" d="M21.5139 16C20.6998 16 19.9191 16.3134 19.3435 16.8714C18.7678 17.4293 18.4444 18.186 18.4444 18.975V25.5508C17.5771 26.0758 17 27.0103 17 28.075V39.625C17 40.7853 17.4756 41.8981 18.3221 42.7186C19.1686 43.5391 20.3167 44 21.5139 44H38.4861C39.6833 44 40.8314 43.5391 41.6779 42.7186C42.5244 41.8981 43 40.7853 43 39.625V36.475C43 35.411 42.4229 34.4765 41.5556 33.9508V22.475C41.5557 21.9025 41.3854 21.3422 41.0652 20.8612C40.7449 20.3802 40.2882 19.9989 39.75 19.7632V33.5H38.3056V18.975C38.3056 18.5843 38.2262 18.1975 38.0719 17.8365C37.9177 17.4756 37.6916 17.1476 37.4065 16.8714C37.1215 16.5951 36.7831 16.376 36.4107 16.2265C36.0383 16.077 35.6392 16 35.2361 16H21.5139ZM36.5 33.5H35.2311C35.065 33.5 34.9005 33.4683 34.7471 33.4067C34.5937 33.3451 34.4543 33.2548 34.3369 33.1409L26.9399 25.9715C26.6549 25.6952 26.3164 25.476 25.9439 25.3264C25.5714 25.1769 25.1721 25.0999 24.7689 25.1H20.25V18.975C20.25 18.2988 20.8162 17.75 21.5139 17.75H35.2361C35.9345 17.75 36.5 18.2988 36.5 18.975V33.5ZM18.8056 28.075C18.8056 27.3988 19.3718 26.85 20.0694 26.85H24.7689C25.1041 26.85 25.4262 26.9788 25.6631 27.2091L33.0601 34.3785C33.3451 34.6548 33.6836 34.874 34.0561 35.0236C34.4286 35.1731 34.8279 35.2501 35.2311 35.25H39.9306C40.6289 35.25 41.1944 35.7981 41.1944 36.475V39.625C41.1944 40.3212 40.9091 40.9889 40.4012 41.4812C39.8933 41.9734 39.2044 42.25 38.4861 42.25H21.5139C20.7956 42.25 20.1067 41.9734 19.5988 41.4812C19.0909 40.9889 18.8056 40.3212 18.8056 39.625V28.075Z" fill="#019FD6"/>
</g>
</svg>
