<svg width="149" height="28" viewBox="0 0 149 28" fill="none" xmlns="http://www.w3.org/2000/svg">
<g id="Clip path group">
<mask id="mask0_2001_179" style="mask-type:luminance" maskUnits="userSpaceOnUse" x="0" y="0" width="150" height="28">
<g id="clip-path">
<path id="Vector" d="M3.27402 0.590951V25.6035L13.5159 25.0877V27.4515H0V0.590951H3.27402ZM27.4255 0L15.8591 27.5723H18.5245C18.9964 25.8549 19.4097 24.4804 19.7938 23.4324C19.9532 22.9002 20.7701 20.7421 22.1956 16.9254H31.6336C32.3235 18.597 32.8703 19.9716 33.2608 21.0229C33.8792 22.6771 34.631 24.8602 35.5162 27.5723L39.4216 27.6147L28.2815 0H27.4255ZM22.8693 15.2701L26.9374 5.20429L31.0348 15.2701H22.8693ZM42.2009 27.4515H63.0979V25.0877L47.0631 25.6329C48.5949 23.1364 50.4738 20.1631 52.6999 16.7132C54.4811 13.9641 56.308 11.2292 58.1804 8.50839C60.1852 5.62547 61.8775 3.22901 63.2346 1.32556V0.571362H43.7077V2.93517L58.265 2.34422C57.3375 3.86894 56.4816 5.25653 55.6614 6.48414C55.0724 7.38526 54.1709 8.73041 52.9928 10.549L42.1911 26.5471L42.2009 27.4515ZM66.987 0.590951V16.3507C66.9579 17.9655 67.1218 19.5779 67.4752 21.1535C67.9015 22.8839 68.624 24.2453 69.6687 25.2509C71.5694 27.0836 74.2521 28 77.7171 28C81.0583 28 83.701 26.9998 85.645 24.9995C87.589 22.9992 88.5653 20.0913 88.574 16.2757V0.604013H86.4619V15.2962C86.4619 18.7113 85.8565 21.3265 84.6328 23.1744C83.3083 25.1856 81.2286 26.2043 78.4493 26.2043C75.3868 26.2043 73.2194 25.3032 71.9404 23.5303C70.8045 21.9174 70.2285 19.3153 70.2285 15.6782V0.590951H66.987ZM98.178 1.98181H101.716C102.369 1.96847 103.022 2.00777 103.668 2.09935C106.396 2.55644 107.766 4.21175 107.766 7.03591C107.81 8.39128 107.33 9.71127 106.425 10.7188C105.516 11.7158 104.313 12.3944 102.991 12.6549C102.543 12.7685 102.084 12.8374 101.621 12.8605C101.149 12.8899 100.645 12.9062 100.088 12.9062H98.178V1.98181ZM98.178 27.5723V14.3559H99.5937L102.585 18.0812L106.933 24.1278L109.289 27.5886L113.549 27.5592L112.856 26.5798L111.043 24.3629L103.405 14.1012C105.588 13.6735 107.339 12.9193 108.651 11.8158C109.417 11.1839 110.029 10.3848 110.44 9.4794C110.851 8.57405 111.051 7.58641 111.023 6.59188C111.023 4.56763 110.347 3.05923 109.022 2.06996C107.697 1.08069 105.601 0.590951 102.786 0.590951H94.9235V27.6147L98.178 27.5723ZM121.047 27.5723V0.590951H117.793V27.6147L121.047 27.5723ZM146.927 0.590951V20.902L146.543 20.9184L128.946 0.590951H127.488V27.6147L129.567 27.5723V6.3111H129.935L145.951 25.202L147.903 27.6278H149.01V0.590951H146.927Z" fill="white"/>
</g>
</mask>
<g mask="url(#mask0_2001_179)">
<g id="Group">
<path id="Vector_2" d="M149 0H0V28H149V0Z" fill="url(#paint0_linear_2001_179)"/>
</g>
</g>
</g>
<defs>
<linearGradient id="paint0_linear_2001_179" x1="45.7385" y1="63.9762" x2="106.253" y2="-40.5033" gradientUnits="userSpaceOnUse">
<stop stop-color="#4F4F4D"/>
<stop offset="0.04" stop-color="#4F4F4D"/>
<stop offset="0.37" stop-color="#9B9B9A"/>
<stop offset="0.49" stop-color="#CCCCCC"/>
<stop offset="0.7" stop-color="#6F6E6E"/>
<stop offset="0.94" stop-color="#4F4F4D"/>
<stop offset="1" stop-color="#4F4F4D"/>
</linearGradient>
</defs>
</svg>
