<svg width="151" height="52" viewBox="0 0 151 52" fill="none" xmlns="http://www.w3.org/2000/svg">
<path d="M31.4548 37.4192C31.2364 38.272 30.9972 39.0728 30.7372 39.8112C29.0472 39.6604 27.3052 39.5772 25.5476 39.5772C23.8576 39.5772 22.2092 39.65 20.6076 39.78C20.3528 39.052 20.1188 38.2564 19.9004 37.4192H18.5952C18.8084 38.2876 19.0476 39.1196 19.3076 39.9048C17.056 40.1388 14.8252 40.5496 12.6412 41.132C11.3724 40.04 10.244 38.792 9.28205 37.4192H7.74805C14.0504 47.32 27.1908 50.2424 37.0968 43.9348C39.7228 42.2656 41.9484 40.04 43.6176 37.414H42.0784C41.1008 38.8076 39.9516 40.0764 38.6516 41.184C36.4832 40.5964 34.2732 40.1804 32.0372 39.936C32.3024 39.1404 32.5468 38.2928 32.76 37.414L31.4548 37.4192ZM13.8944 42.1252C15.8236 41.6676 17.784 41.34 19.76 41.1424C20.5452 43.1444 21.5748 44.7928 22.594 45.8276C19.448 45.2868 16.4684 44.0232 13.8944 42.1252ZM25.6828 46.0772C24.0656 46.0772 22.3964 44.1792 21.086 41.0228C22.5472 40.9084 24.0448 40.846 25.5528 40.846C27.1544 40.846 28.7352 40.9136 30.2744 41.0436C28.9588 44.1844 27.2896 46.0772 25.6828 46.0772ZM37.3984 42.172C34.84 44.044 31.8864 45.292 28.7664 45.8276C29.7804 44.798 30.81 43.16 31.59 41.1684C33.5504 41.3712 35.49 41.7092 37.3984 42.172Z" fill="white"/>
<path d="M30.296 22.2768V16.7388H25.8448C24.4772 16.5464 23.1044 16.4372 21.7212 16.4112C16.594 16.4112 13.084 18.2884 13.084 22.4328C13.084 30.5916 24.8412 27.0348 24.8412 30.0872C24.8412 31.0232 23.9052 31.5484 21.5912 31.5484C19.844 31.5484 18.3204 31.1792 17.6652 30.8308V29.6504H13.214V35.1884H17.6652C19.1108 35.3808 20.5668 35.49 22.028 35.516C28.7672 35.516 31.0136 32.7704 31.0136 29.4112C31.0136 21.2992 19.1472 25.0276 19.1472 21.7776C19.1472 20.9924 19.9532 20.384 22.028 20.384C23.64 20.384 25.1896 20.7532 25.8448 21.1016V22.282L30.296 22.2768Z" fill="white"/>
<path d="M0 30.6436V35.2248H11.8872V30.6436H8.8972V21.3564H11.8872V16.7752H0V21.3564H2.9848V30.6436H0Z" fill="white"/>
<path d="M42.0732 14.5808H43.6124C37.31 4.68 24.1696 1.7576 14.2636 8.0652C11.6428 9.7344 9.41725 11.96 7.74805 14.5808H9.28725C10.2648 13.1872 11.414 11.9184 12.714 10.8108C14.8824 11.3984 17.0924 11.8144 19.3284 12.0588C19.0632 12.8544 18.8188 13.702 18.6056 14.5808H19.9108C20.1292 13.728 20.3684 12.9272 20.6284 12.1888C22.3184 12.3396 24.0604 12.4228 25.8232 12.4228C27.5132 12.4228 29.1616 12.35 30.7632 12.22C31.018 12.948 31.252 13.7436 31.4704 14.5808H32.76C32.5468 13.7124 32.3076 12.8804 32.0476 12.0952C34.2992 11.8612 36.5248 11.4504 38.714 10.868C39.9828 11.9652 41.1112 13.208 42.0732 14.5808ZM19.7704 10.8316C17.8152 10.6288 15.8756 10.2908 13.962 9.828C16.5204 7.956 19.474 6.708 22.594 6.1724C21.58 7.202 20.5504 8.84 19.7704 10.8316ZM25.8128 11.154C24.2112 11.154 22.6304 11.0864 21.0912 10.9564C22.4016 7.8156 24.0656 5.9228 25.6776 5.9228C27.2948 5.9228 28.964 7.8208 30.2744 10.9772C28.8184 11.0916 27.3208 11.154 25.8128 11.154ZM31.6004 10.8576C30.8152 8.8556 29.7856 7.2072 28.7664 6.1724C31.9176 6.7132 34.8972 7.982 37.466 9.8748C35.5368 10.3324 33.5764 10.66 31.6004 10.8576Z" fill="white"/>
<path d="M41.9011 16.4112C36.0095 16.4112 31.8027 19.8328 31.8027 25.9636C31.8027 32.0944 36.0147 35.516 41.9011 35.516C47.7875 35.516 51.9995 32.0892 51.9995 25.9636C51.9995 19.838 47.7875 16.4112 41.9011 16.4112ZM41.9011 31.174C39.5663 31.174 38.0843 29.692 38.0843 25.9636C38.0843 22.2352 39.5663 20.7532 41.9011 20.7532C44.2359 20.7532 45.7179 22.2352 45.7179 25.9636C45.7179 29.692 44.2359 31.174 41.9011 31.174Z" fill="white"/>
<path d="M56.88 22V8H59.48V22H56.88ZM67.6067 22.2C66.5134 22.2 65.4667 22.0467 64.4667 21.74C63.4667 21.42 62.6734 21.0133 62.0867 20.52L62.9867 18.5C63.5467 18.94 64.2401 19.3067 65.0667 19.6C65.8934 19.8933 66.7401 20.04 67.6067 20.04C68.3401 20.04 68.9334 19.96 69.3867 19.8C69.8401 19.64 70.1734 19.4267 70.3867 19.16C70.6001 18.88 70.7067 18.5667 70.7067 18.22C70.7067 17.7933 70.5534 17.4533 70.2467 17.2C69.9401 16.9333 69.5401 16.7267 69.0467 16.58C68.5667 16.42 68.0267 16.2733 67.4267 16.14C66.8401 16.0067 66.2467 15.8533 65.6467 15.68C65.0601 15.4933 64.5201 15.26 64.0267 14.98C63.5467 14.6867 63.1534 14.3 62.8467 13.82C62.5401 13.34 62.3867 12.7267 62.3867 11.98C62.3867 11.22 62.5867 10.5267 62.9867 9.9C63.4001 9.26 64.0201 8.75333 64.8467 8.38C65.6867 7.99333 66.7467 7.8 68.0267 7.8C68.8667 7.8 69.7001 7.90667 70.5267 8.12C71.3534 8.33333 72.0734 8.64 72.6867 9.04L71.8667 11.06C71.2401 10.6867 70.5934 10.4133 69.9267 10.24C69.2601 10.0533 68.6201 9.96 68.0067 9.96C67.2867 9.96 66.7001 10.0467 66.2467 10.22C65.8067 10.3933 65.4801 10.62 65.2667 10.9C65.0667 11.18 64.9667 11.5 64.9667 11.86C64.9667 12.2867 65.1134 12.6333 65.4067 12.9C65.7134 13.1533 66.1067 13.3533 66.5867 13.5C67.0801 13.6467 67.6267 13.7933 68.2267 13.94C68.8267 14.0733 69.4201 14.2267 70.0067 14.4C70.6067 14.5733 71.1467 14.8 71.6267 15.08C72.1201 15.36 72.5134 15.74 72.8067 16.22C73.1134 16.7 73.2667 17.3067 73.2667 18.04C73.2667 18.7867 73.0601 19.48 72.6467 20.12C72.2467 20.7467 71.6267 21.2533 70.7867 21.64C69.9467 22.0133 68.8867 22.2 67.6067 22.2ZM82.4048 22.2C81.3115 22.2 80.3048 22.02 79.3848 21.66C78.4648 21.3 77.6648 20.8 76.9848 20.16C76.3048 19.5067 75.7782 18.7467 75.4048 17.88C75.0315 17 74.8448 16.04 74.8448 15C74.8448 13.96 75.0315 13.0067 75.4048 12.14C75.7782 11.26 76.3048 10.5 76.9848 9.86C77.6648 9.20667 78.4648 8.7 79.3848 8.34C80.3048 7.98 81.3048 7.8 82.3848 7.8C83.4782 7.8 84.4782 7.98 85.3848 8.34C86.3048 8.7 87.1048 9.20667 87.7848 9.86C88.4648 10.5 88.9915 11.26 89.3648 12.14C89.7382 13.0067 89.9248 13.96 89.9248 15C89.9248 16.04 89.7382 17 89.3648 17.88C88.9915 18.76 88.4648 19.52 87.7848 20.16C87.1048 20.8 86.3048 21.3 85.3848 21.66C84.4782 22.02 83.4848 22.2 82.4048 22.2ZM82.3848 19.92C83.0915 19.92 83.7448 19.8 84.3448 19.56C84.9448 19.32 85.4648 18.98 85.9048 18.54C86.3448 18.0867 86.6848 17.5667 86.9248 16.98C87.1782 16.38 87.3048 15.72 87.3048 15C87.3048 14.28 87.1782 13.6267 86.9248 13.04C86.6848 12.44 86.3448 11.92 85.9048 11.48C85.4648 11.0267 84.9448 10.68 84.3448 10.44C83.7448 10.2 83.0915 10.08 82.3848 10.08C81.6782 10.08 81.0248 10.2 80.4248 10.44C79.8382 10.68 79.3182 11.0267 78.8648 11.48C78.4248 11.92 78.0782 12.44 77.8248 13.04C77.5848 13.6267 77.4648 14.28 77.4648 15C77.4648 15.7067 77.5848 16.36 77.8248 16.96C78.0782 17.56 78.4248 18.0867 78.8648 18.54C79.3048 18.98 79.8248 19.32 80.4248 19.56C81.0248 19.8 81.6782 19.92 82.3848 19.92ZM60.6 30.8C61.88 30.8 62.9667 31.0733 63.86 31.62C64.7667 32.1533 65.46 32.9333 65.94 33.96C66.42 34.9867 66.66 36.2533 66.66 37.76C66.66 39.36 66.3667 40.7133 65.78 41.82C65.2067 42.9267 64.4067 43.7667 63.38 44.34C62.3533 44.9133 61.16 45.2 59.8 45.2C59.0933 45.2 58.42 45.1267 57.78 44.98C57.14 44.8333 56.5867 44.6067 56.12 44.3L57.08 42.34C57.4667 42.5933 57.8867 42.7733 58.34 42.88C58.7933 42.9733 59.26 43.02 59.74 43.02C61.06 43.02 62.1067 42.6133 62.88 41.8C63.6533 40.9867 64.04 39.7867 64.04 38.2C64.04 37.9467 64.0333 37.6533 64.02 37.32C64.0067 36.9733 63.96 36.6267 63.88 36.28L64.68 37.16C64.4533 37.7067 64.1267 38.1667 63.7 38.54C63.2733 38.9 62.7733 39.1733 62.2 39.36C61.6267 39.5467 60.9933 39.64 60.3 39.64C59.3933 39.64 58.5733 39.4667 57.84 39.12C57.12 38.76 56.5467 38.26 56.12 37.62C55.6933 36.9667 55.48 36.2067 55.48 35.34C55.48 34.4067 55.7067 33.6067 56.16 32.94C56.6133 32.26 57.2267 31.7333 58 31.36C58.7867 30.9867 59.6533 30.8 60.6 30.8ZM60.74 32.84C60.2067 32.84 59.7333 32.94 59.32 33.14C58.9067 33.3267 58.58 33.6 58.34 33.96C58.1133 34.3067 58 34.7267 58 35.22C58 35.9533 58.2533 36.5333 58.76 36.96C59.2667 37.3867 59.9467 37.6 60.8 37.6C61.36 37.6 61.8533 37.5 62.28 37.3C62.7067 37.0867 63.04 36.8 63.28 36.44C63.52 36.0667 63.64 35.6533 63.64 35.2C63.64 34.76 63.5267 34.3667 63.3 34.02C63.0733 33.66 62.7467 33.3733 62.32 33.16C61.8933 32.9467 61.3667 32.84 60.74 32.84ZM74.2591 45.2C73.1524 45.2 72.1524 44.92 71.2591 44.36C70.3791 43.8 69.6857 42.9867 69.1791 41.92C68.6724 40.84 68.4191 39.5333 68.4191 38C68.4191 36.4667 68.6724 35.1667 69.1791 34.1C69.6857 33.02 70.3791 32.2 71.2591 31.64C72.1524 31.08 73.1524 30.8 74.2591 30.8C75.3791 30.8 76.3791 31.08 77.2591 31.64C78.1391 32.2 78.8324 33.02 79.3391 34.1C79.8591 35.1667 80.1191 36.4667 80.1191 38C80.1191 39.5333 79.8591 40.84 79.3391 41.92C78.8324 42.9867 78.1391 43.8 77.2591 44.36C76.3791 44.92 75.3791 45.2 74.2591 45.2ZM74.2591 42.94C74.9124 42.94 75.4791 42.7667 75.9591 42.42C76.4391 42.06 76.8124 41.5133 77.0791 40.78C77.3591 40.0467 77.4991 39.12 77.4991 38C77.4991 36.8667 77.3591 35.94 77.0791 35.22C76.8124 34.4867 76.4391 33.9467 75.9591 33.6C75.4791 33.24 74.9124 33.06 74.2591 33.06C73.6324 33.06 73.0724 33.24 72.5791 33.6C72.0991 33.9467 71.7191 34.4867 71.4391 35.22C71.1724 35.94 71.0391 36.8667 71.0391 38C71.0391 39.12 71.1724 40.0467 71.4391 40.78C71.7191 41.5133 72.0991 42.06 72.5791 42.42C73.0724 42.7667 73.6324 42.94 74.2591 42.94ZM87.7161 45.2C86.6094 45.2 85.6094 44.92 84.7161 44.36C83.8361 43.8 83.1428 42.9867 82.6361 41.92C82.1294 40.84 81.8761 39.5333 81.8761 38C81.8761 36.4667 82.1294 35.1667 82.6361 34.1C83.1428 33.02 83.8361 32.2 84.7161 31.64C85.6094 31.08 86.6094 30.8 87.7161 30.8C88.8361 30.8 89.8361 31.08 90.7161 31.64C91.5961 32.2 92.2894 33.02 92.7961 34.1C93.3161 35.1667 93.5761 36.4667 93.5761 38C93.5761 39.5333 93.3161 40.84 92.7961 41.92C92.2894 42.9867 91.5961 43.8 90.7161 44.36C89.8361 44.92 88.8361 45.2 87.7161 45.2ZM87.7161 42.94C88.3694 42.94 88.9361 42.7667 89.4161 42.42C89.8961 42.06 90.2694 41.5133 90.5361 40.78C90.8161 40.0467 90.9561 39.12 90.9561 38C90.9561 36.8667 90.8161 35.94 90.5361 35.22C90.2694 34.4867 89.8961 33.9467 89.4161 33.6C88.9361 33.24 88.3694 33.06 87.7161 33.06C87.0894 33.06 86.5294 33.24 86.0361 33.6C85.5561 33.9467 85.1761 34.4867 84.8961 35.22C84.6294 35.94 84.4961 36.8667 84.4961 38C84.4961 39.12 84.6294 40.0467 84.8961 40.78C85.1761 41.5133 85.5561 42.06 86.0361 42.42C86.5294 42.7667 87.0894 42.94 87.7161 42.94ZM97.5536 45V32L98.6936 33.18H94.5936V31H100.154V45H97.5536ZM104.491 37.52C104.037 37.52 103.651 37.3667 103.331 37.06C103.011 36.74 102.851 36.34 102.851 35.86C102.851 35.3533 103.011 34.9533 103.331 34.66C103.651 34.3533 104.037 34.2 104.491 34.2C104.944 34.2 105.331 34.3533 105.651 34.66C105.971 34.9533 106.131 35.3533 106.131 35.86C106.131 36.34 105.971 36.74 105.651 37.06C105.331 37.3667 104.944 37.52 104.491 37.52ZM104.491 45.14C104.037 45.14 103.651 44.9867 103.331 44.68C103.011 44.36 102.851 43.96 102.851 43.48C102.851 42.9733 103.011 42.5733 103.331 42.28C103.651 41.9733 104.037 41.82 104.491 41.82C104.944 41.82 105.331 41.9733 105.651 42.28C105.971 42.5733 106.131 42.9733 106.131 43.48C106.131 43.96 105.971 44.36 105.651 44.68C105.331 44.9867 104.944 45.14 104.491 45.14ZM107.634 45V43.26L113.194 37.98C113.66 37.54 114.007 37.1533 114.234 36.82C114.46 36.4867 114.607 36.18 114.674 35.9C114.754 35.6067 114.794 35.3333 114.794 35.08C114.794 34.44 114.574 33.9467 114.134 33.6C113.694 33.24 113.047 33.06 112.194 33.06C111.514 33.06 110.894 33.18 110.334 33.42C109.787 33.66 109.314 34.0267 108.914 34.52L107.094 33.12C107.64 32.3867 108.374 31.82 109.294 31.42C110.227 31.0067 111.267 30.8 112.414 30.8C113.427 30.8 114.307 30.9667 115.054 31.3C115.814 31.62 116.394 32.08 116.794 32.68C117.207 33.28 117.414 33.9933 117.414 34.82C117.414 35.2733 117.354 35.7267 117.234 36.18C117.114 36.62 116.887 37.0867 116.554 37.58C116.22 38.0733 115.734 38.6267 115.094 39.24L110.314 43.78L109.774 42.8H117.954V45H107.634ZM125.294 45.2C124.188 45.2 123.188 44.92 122.294 44.36C121.414 43.8 120.721 42.9867 120.214 41.92C119.708 40.84 119.454 39.5333 119.454 38C119.454 36.4667 119.708 35.1667 120.214 34.1C120.721 33.02 121.414 32.2 122.294 31.64C123.188 31.08 124.188 30.8 125.294 30.8C126.414 30.8 127.414 31.08 128.294 31.64C129.174 32.2 129.868 33.02 130.374 34.1C130.894 35.1667 131.154 36.4667 131.154 38C131.154 39.5333 130.894 40.84 130.374 41.92C129.868 42.9867 129.174 43.8 128.294 44.36C127.414 44.92 126.414 45.2 125.294 45.2ZM125.294 42.94C125.948 42.94 126.514 42.7667 126.994 42.42C127.474 42.06 127.848 41.5133 128.114 40.78C128.394 40.0467 128.534 39.12 128.534 38C128.534 36.8667 128.394 35.94 128.114 35.22C127.848 34.4867 127.474 33.9467 126.994 33.6C126.514 33.24 125.948 33.06 125.294 33.06C124.668 33.06 124.108 33.24 123.614 33.6C123.134 33.9467 122.754 34.4867 122.474 35.22C122.208 35.94 122.074 36.8667 122.074 38C122.074 39.12 122.208 40.0467 122.474 40.78C122.754 41.5133 123.134 42.06 123.614 42.42C124.108 42.7667 124.668 42.94 125.294 42.94ZM135.132 45V32L136.272 33.18H132.172V31H137.732V45H135.132ZM145.149 45.2C144.162 45.2 143.196 45.06 142.249 44.78C141.316 44.4867 140.529 44.0867 139.889 43.58L140.989 41.56C141.496 41.9733 142.109 42.3067 142.829 42.56C143.562 42.8133 144.322 42.94 145.109 42.94C146.029 42.94 146.749 42.7467 147.269 42.36C147.802 41.9733 148.069 41.4533 148.069 40.8C148.069 40.36 147.956 39.9733 147.729 39.64C147.516 39.3067 147.129 39.0533 146.569 38.88C146.022 38.7067 145.269 38.62 144.309 38.62H140.929L141.649 31H149.869V33.18H142.609L143.969 31.94L143.429 37.64L142.069 36.42H144.889C146.276 36.42 147.389 36.6067 148.229 36.98C149.082 37.34 149.702 37.8467 150.089 38.5C150.489 39.14 150.689 39.8733 150.689 40.7C150.689 41.5133 150.489 42.26 150.089 42.94C149.689 43.62 149.076 44.1667 148.249 44.58C147.436 44.9933 146.402 45.2 145.149 45.2Z" fill="white"/>
</svg>
