<svg width="128" height="41" viewBox="0 0 128 41" fill="none" xmlns="http://www.w3.org/2000/svg">
<path d="M32.9707 5.08608C33.6144 5.08885 34.2308 5.3433 34.685 5.79372C35.1392 6.24415 35.3941 6.85388 35.3941 7.4895V13.4508H40.4536V7.4895C40.4536 3.39634 37.0948 0.079834 32.9707 0.079834H26.9121V5.08608H32.9707Z" fill="white"/>
<path d="M35.3941 32.6467C35.3941 33.2813 35.1388 33.89 34.6843 34.3387C34.2298 34.7875 33.6134 35.0396 32.9707 35.0396H26.9121V40.0248H32.9707C34.9526 40.0221 36.8527 39.2442 38.2551 37.8614C39.6575 36.4786 40.448 34.6036 40.4536 32.6467V26.6644H35.3941V32.6467Z" fill="white"/>
<path d="M5.05946 7.4895C5.05806 7.17387 5.11963 6.86107 5.24066 6.56895C5.36169 6.27682 5.53981 6.0111 5.76485 5.78694C5.98989 5.56279 6.25744 5.3846 6.55222 5.26254C6.847 5.14049 7.16324 5.07696 7.48289 5.07558H13.5415V0.079834H7.48289C5.49635 0.0853907 3.59309 0.868502 2.19039 2.25748C0.787681 3.64646 -7.97107e-06 5.52796 0 7.4895V13.4508H5.05946V7.4895Z" fill="white"/>
<path d="M7.48289 35.0396C6.84102 35.0368 6.22623 34.7838 5.77235 34.3357C5.31847 33.8875 5.06225 33.2805 5.05946 32.6467V26.6644H0V32.6467C0.00562039 34.6036 0.796136 36.4786 2.19854 37.8614C3.60094 39.2442 5.50101 40.0221 7.48289 40.0248H13.5415V35.0396H7.48289Z" fill="white"/>
<path d="M17.3157 32.038L6.50586 21.3643L10.0772 17.8274L17.305 24.9641L30.3788 12.055L33.9502 15.5919L17.3157 32.038Z" fill="white"/>
<path d="M68.7616 27.8443C69.5038 28.6882 69.8861 29.7097 69.8861 30.9089C69.8861 31.886 69.6162 32.7965 69.0764 33.6292C68.4815 34.523 67.6382 35.2285 66.6475 35.6612C65.5567 36.1719 64.2073 36.4273 62.5993 36.4273C61.4205 36.4275 60.2461 36.2858 59.102 36.0054C58.0425 35.7565 57.0292 35.3443 56.0996 34.784L57.8201 31.2642C59.2 32.1496 60.8074 32.6273 62.4531 32.641C63.2627 32.641 63.9149 32.4856 64.3872 32.1969C64.8595 31.886 65.1069 31.464 65.1069 30.9089C65.1069 29.8429 64.2523 29.2989 62.5543 29.2989H60.5639V26.3342L63.5551 23.1364H56.9655V19.5167H69.0427V22.4591L65.5792 26.1455C66.9624 26.4341 68.0307 27.0004 68.7728 27.8443" fill="white"/>
<path d="M88.4862 19.5167V36.0609H83.7295V29.6097H77.2411V36.0498H72.4844V19.5278H77.2411V25.7457H83.7295V19.5278L88.4862 19.5167Z" fill="white"/>
<path d="M103.666 20.083C104.86 20.6933 105.84 21.6453 106.477 22.8144C107.152 24.0025 107.478 25.4349 107.478 27.1115V36.0609H102.721V32.3968H96.154V36.0609H91.4648V27.1004C91.4648 25.4349 91.8022 23.9914 92.4657 22.8033C93.1029 21.6342 94.0828 20.6822 95.2769 20.0719C96.5776 19.4291 98.0172 19.109 99.4713 19.1392C101.057 19.1392 102.451 19.4501 103.666 20.0719V20.083ZM102.721 28.7659V26.7007C102.721 25.4904 102.418 24.5799 101.822 23.9581C101.514 23.6485 101.144 23.4064 100.735 23.2476C100.326 23.0888 99.8877 23.0169 99.4489 23.0365C98.4368 23.0365 97.6384 23.3474 97.0424 23.9581C96.4577 24.5799 96.154 25.4904 96.154 26.7007V28.7659H102.721Z" fill="white"/>
<path d="M115.17 28.2107V36.0609H110.447V19.5167H115.17V27.3557H115.283L121.175 19.5167H126.831L120.377 27.5112L127.011 36.0609H120.871L115.17 28.2107Z" fill="white"/>
<path d="M64.6686 5.91489V14.3758H61.7786V11.6665C61.2051 11.8331 60.6766 11.9219 60.2043 11.9219C58.9336 11.9219 57.9553 11.6332 57.2806 11.0336C56.6284 10.4562 56.291 9.59015 56.291 8.46869V5.91489H59.1698V8.15779C59.1698 8.66855 59.2822 9.04607 59.5184 9.29035C59.7433 9.54573 60.1031 9.66787 60.5754 9.66787C61.0702 9.66787 61.475 9.60125 61.7786 9.46801V5.91489H64.6686Z" fill="white"/>
<path d="M73.5966 12.2217V14.3758H66.5234V5.91489H73.4392V8.06897H69.346V9.06828H72.9444V11.1113H69.346V12.2217H73.5966Z" fill="white"/>
<path d="M77.2623 13.8095C76.5429 13.4528 75.9399 12.9033 75.5222 12.2238C75.1045 11.5443 74.8892 10.7624 74.9008 9.96766C74.8897 9.17156 75.1052 8.38836 75.5227 7.70721C75.9401 7.02605 76.5429 6.4743 77.2623 6.11475C78.0045 5.73723 78.8366 5.55957 79.7475 5.55957C80.5909 5.55957 81.3443 5.69281 82.0077 5.9815C82.6824 6.27019 83.2222 6.69213 83.6495 7.2362L81.8053 8.84621C81.5884 8.54325 81.3023 8.29494 80.9702 8.12134C80.6381 7.94774 80.2694 7.85372 79.8937 7.84689C79.2864 7.84689 78.7916 8.04676 78.4205 8.42427C78.0495 8.8129 77.8583 9.31255 77.8583 9.96766C77.8583 10.6006 78.0495 11.1224 78.4205 11.4999C78.7916 11.8775 79.2864 12.0662 79.8937 12.0662C80.6246 12.0662 81.2656 11.7331 81.8053 11.0891L83.6495 12.688C83.2222 13.2321 82.6712 13.654 82.0077 13.9427C81.3443 14.2314 80.5908 14.3758 79.7587 14.3758C78.8254 14.3758 78.0045 14.187 77.2623 13.8206" fill="white"/>
<path d="M92.3993 8.13559H89.9029V14.3758H87.0804V8.13559H84.584V5.91489H92.3993V8.13559Z" fill="white"/>
<path d="M102.272 5.91489V14.3758H99.3369V11.2668H96.6381V14.3758H93.7031V5.91489H96.6268V8.91283H99.3257V5.91489H102.272Z" fill="white"/>
<path d="M112.369 11.3112C112.369 12.2994 112.032 13.0544 111.357 13.5874C110.683 14.1093 109.783 14.3647 108.614 14.3647H104.307V5.92599H107.185V8.5131H108.985C110.064 8.5131 110.896 8.74628 111.492 9.22373C112.077 9.69008 112.369 10.3896 112.369 11.3112ZM109.423 11.3556C109.423 10.7893 109.086 10.5117 108.411 10.5117H107.185V12.3771H108.422C108.688 12.3852 108.947 12.2895 109.142 12.1106C109.239 12.0109 109.315 11.8923 109.363 11.7623C109.411 11.6323 109.432 11.4938 109.423 11.3556ZM113.157 5.91489H116.035V14.3758H113.157V5.91489Z" fill="white"/>
<path d="M117.902 5.91488H120.759V10.3119L123.727 5.91488H126.46V14.3758H123.604V9.97877L120.646 14.3758H117.902V5.91488ZM120.118 4.91557C119.69 4.56026 119.488 4.03839 119.488 3.34998H121.422C121.422 3.61646 121.478 3.81632 121.591 3.93846C121.703 4.0495 121.894 4.12722 122.175 4.12722C122.457 4.12722 122.648 4.0606 122.771 3.93846C122.884 3.82743 122.951 3.61646 122.951 3.34998H124.886C124.886 4.03839 124.661 4.56026 124.245 4.90447C123.817 5.24867 123.12 5.42633 122.175 5.42633C121.22 5.42633 120.534 5.24867 120.118 4.90447V4.91557Z" fill="white"/>
</svg>
