<svg width="85" height="68" viewBox="0 0 85 68" fill="none" xmlns="http://www.w3.org/2000/svg">
<path d="M3.76892 21.5828C4.00556 21.3281 5.46841 19.2697 3.46771 25.3815C2.88686 27.1854 0.498979 32.2149 6.73771 34.231C12.9764 36.2471 21.6031 34.6554 20.9577 23.9384C20.2908 12.4362 18.6343 0.042726 21.8827 0.000282537C25.1312 -0.042161 24.8515 4.71151 24.8515 4.71151C24.8515 4.71151 27.8203 36.5442 14.4608 39.8123C1.10133 43.0805 -4.25537 30.7718 3.76892 21.5828Z" fill="white"/>
<path d="M37.8881 26.7822C37.8881 26.7822 40.0394 20.7976 34.0589 14.0491C28.0783 7.30058 27.7126 9.40154 27.605 14.9829C27.605 14.9829 27.3899 15.6195 32.1442 18.9725C36.8986 22.3256 37.0707 22.8773 37.8881 26.7822Z" fill="white"/>
<path d="M19.7305 40.5338C19.7305 40.5338 39.0921 36.5653 42.362 23.0895C45.632 9.6137 48.988 3.33206 50.2788 6.70632C51.5695 10.0806 48.9234 32.5969 52.6882 35.3981C58.3891 39.6425 73.4911 32.5969 68.2205 28.5435C62.9498 24.4902 57.464 29.8593 57.464 29.8593C57.464 29.8593 57.0338 25.6149 63.0359 24.4053C69.7049 23.0046 73.9859 29.2863 77.0408 31.7692C78.0983 32.4714 79.3231 32.8896 80.5944 32.9827C81.8657 33.0757 83.1396 32.8403 84.2906 32.2997C84.2906 32.2997 83.5592 37.4991 79.7514 37.4779C73.9459 37.0256 68.1045 37.4117 62.412 38.6239C54.4738 40.5126 46.9442 40.937 47.2239 21.9436C47.2454 21.9436 42.9428 45.0116 19.7305 40.5338Z" fill="white"/>
<path d="M70.8398 67.0799V50.9322H75.47V63.4582H83.2804V67.0799H70.8398Z" fill="white"/>
<path d="M50.4922 67.0798L57.718 50.9322H62.278L69.5272 67.0798H64.7099L59.0509 53.1698H60.8749L55.2159 67.0798H50.4922ZM54.4442 63.9426L55.6368 60.5746H63.6343L64.8269 63.9426H54.4442Z" fill="white"/>
<path d="M38.0234 67.0798V50.9322H42.6536V63.4582H50.464V67.0798H38.0234Z" fill="white"/>
<path d="M17.6758 67.0798L24.9016 50.9322H29.4616L36.7107 67.0798H31.8935L26.2345 53.1698H28.0585L22.3994 67.0798H17.6758ZM21.6278 63.9426L22.8204 60.5746H30.8179L32.0105 63.9426H21.6278Z" fill="white"/>
<path d="M11.7447 50.9322H16.3748V67.0798H11.7447V50.9322ZM5.43091 67.0798H0.800781V50.9322H5.43091V67.0798ZM12.0721 60.7823H5.10353V56.9991H12.0721V60.7823Z" fill="white"/>
</svg>
